<?xml version="1.0" standalone="no"?>
<!DOCTYPE svg PUBLIC "-//W3C//DTD SVG 1.1//EN" "http://www.w3.org/Graphics/SVG/1.1/DTD/svg11.dtd" >
<svg>
<metadata>
Created by FontForge 20110222 at Mon Mar 16 08:59:43 2015
 By deploy user
Copyright (c) 2008-2012 by Jos Buivenga/exljbris. All rights reserved.
</metadata>
<defs>
<font id="MuseoCyrl-500" horiz-adv-x="1181" >
  <font-face 
    font-family="Museo Cyrl 500"
    font-weight="400"
    font-stretch="normal"
    units-per-em="2048"
    panose-1="2 0 0 0 0 0 0 0 0 0"
    ascent="1536"
    descent="-512"
    x-height="1036"
    cap-height="1446"
    bbox="-96 -430 2095 1827"
    underline-thickness="102"
    underline-position="-102"
    unicode-range="U+000D-E000"
  />
<missing-glyph horiz-adv-x="748" 
d="M68 0v1365h544v-1365h-544zM136 68h408v1229h-408v-1229z" />
    <glyph glyph-name=".notdef" horiz-adv-x="748" 
d="M68 0v1365h544v-1365h-544zM136 68h408v1229h-408v-1229z" />
    <glyph glyph-name="glyph1" horiz-adv-x="2048" 
 />
    <glyph glyph-name="glyph1" horiz-adv-x="2048" 
 />
    <glyph glyph-name="uni000D" unicode="&#xd;" horiz-adv-x="2048" 
 />
    <glyph glyph-name="space" unicode=" " horiz-adv-x="550" 
 />
    <glyph glyph-name="exclam" unicode="!" horiz-adv-x="548" 
d="M172 1446h205l-12 -1049h-179zM174 0v199h203v-199h-203z" />
    <glyph glyph-name="quotedbl" unicode="&#x22;" horiz-adv-x="706" 
d="M131 1085v385h156v-385h-156zM418 1085v385h157v-385h-157z" />
    <glyph glyph-name="numbersign" unicode="#" horiz-adv-x="1447" 
d="M76 391l24 152h269l61 344h-266l24 149h267l71 410h166l-71 -410h317l72 410h168l-72 -410h266l-24 -149h-269l-61 -344h266l-24 -152h-267l-67 -391h-168l69 391h-317l-70 -391h-166l70 391h-268zM535 543h317l61 344h-317z" />
    <glyph glyph-name="dollar" unicode="$" 
d="M109 256l145 121q5 -9 14.5 -23.5t42.5 -51.5t70 -65.5t97.5 -51.5t125.5 -23q110 0 179 60.5t69 154.5q0 49 -24 89.5t-64.5 70.5t-92.5 57.5t-110 54t-116 55.5t-110 66t-92.5 81.5t-64.5 107t-24 137.5q0 142 104 243.5t272 124.5v193h150v-191q59 -7 114.5 -24
t108 -47t84 -79.5t31.5 -111.5v-119h-189v68q0 56 -62.5 93.5t-150.5 37.5q-115 0 -184.5 -53t-69.5 -133q0 -48 24 -88t64.5 -69t93 -55t110.5 -51t115.5 -53t110 -65t93 -82t64.5 -109.5t24 -142.5q0 -151 -105 -265.5t-276 -135.5v-191h-150v189q-82 10 -155.5 42
t-120 70.5t-81 76t-49.5 62.5z" />
    <glyph glyph-name="percent" unicode="%" horiz-adv-x="1531" 
d="M84 1167q0 125 90.5 214t220.5 89q128 0 220 -89.5t92 -213.5q0 -126 -92 -214.5t-220 -88.5q-130 0 -220.5 88.5t-90.5 214.5zM117 0l1106 1446h192l-1106 -1446h-192zM244 1167q0 -65 43 -108t108 -43q63 0 107.5 43.5t44.5 107.5q0 63 -44.5 108.5t-107.5 45.5
q-64 0 -107.5 -45t-43.5 -109zM827 279q0 125 90.5 214t219.5 89t220 -89t91 -214q0 -126 -91 -215t-220 -89t-219.5 89t-90.5 215zM987 279q0 -64 43.5 -108t106.5 -44q64 0 107.5 43.5t43.5 108.5q0 64 -43.5 108.5t-107.5 44.5q-63 0 -106.5 -45t-43.5 -108z" />
    <glyph glyph-name="ampersand" unicode="&#x26;" horiz-adv-x="1306" 
d="M88 414q0 119 67.5 222.5t184.5 137.5v4q-8 3 -20.5 9t-45 31.5t-57 58t-45 91.5t-20.5 130q0 167 120 269.5t314 102.5q43 0 89 -5.5t71 -10.5l24 -6l-51 -162q-62 14 -111 14q-110 0 -181 -63t-71 -160q0 -30 6 -58.5t24 -60t46.5 -54.5t77.5 -38.5t113 -15.5h260v186
h198v-186h185v-176h-185v-193q0 -240 -130 -373t-359 -133q-221 0 -362.5 125.5t-141.5 313.5zM297 416q0 -107 80 -180.5t215 -73.5q138 0 214.5 81t76.5 246v185h-258q-157 0 -242.5 -68t-85.5 -190z" />
    <glyph glyph-name="quotesingle" unicode="'" horiz-adv-x="419" 
d="M131 1085v385h158v-385h-158z" />
    <glyph glyph-name="parenleft" unicode="(" horiz-adv-x="555" 
d="M84 674q0 476 231 831h174q-225 -376 -225 -817q0 -472 236 -883h-174q-117 179 -179.5 405.5t-62.5 463.5z" />
    <glyph glyph-name="parenright" unicode=")" horiz-adv-x="555" 
d="M55 -195q236 411 236 883q0 441 -228 817h177q231 -355 231 -831q0 -236 -63 -462.5t-179 -406.5h-174z" />
    <glyph glyph-name="asterisk" unicode="*" horiz-adv-x="989" 
d="M88 1085l55 172l273 -102l-17 291h187l-17 -291l275 102l57 -172l-283 -75v-4l183 -226l-148 -106l-157 241h-4l-158 -241l-148 106l183 226v4z" />
    <glyph glyph-name="plus" unicode="+" 
d="M49 504v160h459v503h168v-503h457v-160h-457v-504h-168v504h-459z" />
    <glyph glyph-name="comma" unicode="," horiz-adv-x="509" 
d="M49 -207l127 422h199l-172 -422h-154z" />
    <glyph glyph-name="hyphen" unicode="-" horiz-adv-x="839" 
d="M121 496v176h598v-176h-598z" />
    <glyph glyph-name="period" unicode="." horiz-adv-x="444" 
d="M121 0v211h203v-211h-203z" />
    <glyph glyph-name="slash" unicode="/" horiz-adv-x="845" 
d="M76 -86l520 1610h176l-520 -1610h-176z" />
    <glyph glyph-name="zero" unicode="0" horiz-adv-x="1226" 
d="M102 725q0 129 16 237.5t53 204t94.5 161.5t145.5 104t201 38t201.5 -38t146.5 -104t95 -161.5t53 -204t16 -237.5q0 -130 -16 -239t-53 -205t-95 -162.5t-146.5 -105t-201.5 -38.5t-201 38.5t-145.5 105t-94.5 162.5t-53 205t-16 239zM309 725q0 -125 14.5 -222
t48 -176.5t94 -122t146.5 -42.5t147.5 42.5t95 122t48.5 176.5t15 222q0 124 -15 220.5t-48.5 175.5t-95 121t-147.5 42q-69 0 -122 -28.5t-87 -77.5t-55.5 -121.5t-30 -153t-8.5 -178.5z" />
    <glyph glyph-name="one" unicode="1" horiz-adv-x="952" 
d="M80 1110l344 336h188v-1270h314v-176h-836v176h318v934l2 88h-4q-17 -31 -68 -82l-137 -133z" />
    <glyph glyph-name="two" unicode="2" horiz-adv-x="1167" 
d="M76 166q0 85 25 157.5t67.5 124.5t98 97t116.5 81.5t121.5 70.5t116 70.5t98 76.5t67.5 93.5t25 115.5q0 101 -69 165t-185 64q-95 0 -159 -41t-64 -96v-64h-189v123q0 67 41.5 120.5t106.5 84t135 46t137 15.5q199 0 327 -115t128 -300q0 -101 -40.5 -185t-105 -141.5
t-142.5 -107t-156.5 -93t-143 -87.5t-105 -101.5t-40.5 -124.5q0 -21 12 -30t39 -9h514q45 0 45 45v92h188v-182q0 -69 -31 -100t-100 -31h-741q-82 0 -109.5 37t-27.5 129z" />
    <glyph glyph-name="three" unicode="3" horiz-adv-x="1138" 
d="M70 178l110 154q6 -7 17 -18t48 -39t77.5 -50t101.5 -39.5t123 -17.5q121 0 205 74.5t84 189.5q0 117 -91.5 187.5t-222.5 70.5h-100l-45 109l301 379q19 27 40.5 50.5t33.5 33.5l12 10v4q-43 -6 -123 -6h-281q-45 0 -45 -45v-92h-186v182q0 70 27.5 100.5t95.5 30.5h762
v-129l-379 -459q58 -6 114 -24.5t110 -53.5t94.5 -82t65.5 -115t25 -149q0 -91 -36 -174t-99.5 -146.5t-157.5 -101t-204 -37.5q-84 0 -164 21t-134 50.5t-96.5 59.5t-62.5 51z" />
    <glyph glyph-name="four" unicode="4" horiz-adv-x="1200" 
d="M37 383v131l653 932h234v-887h225v-176h-225v-383h-205v383h-682zM260 553q60 6 123 6h338v498q0 29 2 66t4 59l2 22h-4q-35 -68 -72 -121l-319 -434q-16 -24 -34.5 -47t-29.5 -34l-10 -11v-4z" />
    <glyph glyph-name="five" unicode="5" horiz-adv-x="1122" 
d="M76 178l112 150q5 -7 14 -17.5t40.5 -38t67.5 -48.5t94 -38.5t120 -17.5q135 0 223.5 83t88.5 206q0 132 -99 213.5t-243 81.5q-72 0 -141.5 -18.5t-102.5 -37.5l-33 -18l-84 39l57 598q6 71 35 101t97 30h505q68 0 98.5 -31t30.5 -100v-182h-186v92q0 45 -45 45h-303
q-21 0 -31.5 -10.5t-13.5 -34.5l-29 -264l-10 -76h4q80 43 186 43q230 0 373 -136.5t143 -338.5q0 -95 -37.5 -182t-104 -152.5t-165 -104.5t-213.5 -39q-61 0 -118.5 11t-101 29t-82 39.5t-64.5 43.5t-45 40t-28 29z" />
    <glyph glyph-name="six" unicode="6" horiz-adv-x="1169" 
d="M90 641q0 82 12.5 164.5t39 164.5t64.5 155.5t92 137t118.5 109.5t148 72t176.5 26q76 0 146.5 -15t102.5 -29l32 -15l-66 -174q-10 5 -28 13t-71.5 21t-104.5 13q-96 0 -175 -42t-131 -113.5t-84.5 -157.5t-44.5 -183h5q42 65 131.5 103.5t187.5 38.5q201 0 328 -135
t127 -336q0 -213 -131 -348.5t-334 -135.5q-114 0 -213.5 48t-172 133.5t-114 211t-41.5 273.5zM305 555q0 -92 42 -182.5t119 -150.5t165 -60q122 0 193 84t71 213q0 133 -80 216t-217 83q-120 0 -206.5 -62t-86.5 -141z" />
    <glyph glyph-name="seven" unicode="7" horiz-adv-x="1081" 
d="M68 1133v182q0 70 27 100.5t95 30.5h881v-139l-702 -1307h-226l613 1139q20 36 41 69.5t32 48.5l11 15v4q-33 -6 -105 -6h-436q-45 0 -45 -45v-92h-186z" />
    <glyph glyph-name="eight" unicode="8" horiz-adv-x="1185" 
d="M88 414q0 67 24.5 129.5t60 104t71 74t60.5 47.5l24 15v4q-7 4 -19 11.5t-43 34.5t-54.5 58.5t-42.5 83t-19 107.5q0 76 30 145.5t85.5 123.5t142 86t192.5 32q204 0 328.5 -110t124.5 -281q0 -60 -18 -117t-44 -96.5t-52 -70t-44 -45.5l-18 -15v-4q105 -61 161 -141
t56 -191q0 -173 -143 -298.5t-359 -125.5q-136 0 -250 53t-184 154.5t-70 231.5zM295 424q0 -118 87 -190t210 -72q119 0 206 69.5t87 174.5q0 46 -17.5 82t-54.5 64.5t-74 47.5t-96 43q-127 53 -149 53q-20 0 -52.5 -21.5t-65.5 -56t-57 -87.5t-24 -107zM350 1079
q0 -37 13 -68t32 -52t53.5 -42t63.5 -34t76 -31q79 -35 110 -35q42 0 98 80.5t56 169.5q0 99 -70 158t-182 59q-115 0 -182.5 -58t-67.5 -147z" />
    <glyph glyph-name="nine" unicode="9" horiz-adv-x="1169" 
d="M74 987q0 213 131 348t334 135q153 0 275.5 -81.5t193.5 -234t71 -349.5q0 -96 -17.5 -192.5t-51.5 -190t-88.5 -174t-124.5 -142t-165 -96.5t-204 -35q-76 0 -146.5 15t-102.5 30l-32 15l66 176q10 -5 28.5 -13.5t73 -22t105.5 -13.5q95 0 174 42t131 114t84.5 158.5
t44.5 182.5h-4q-43 -66 -132 -103.5t-188 -37.5q-202 0 -329 134t-127 335zM274 987q0 -132 80 -215.5t217 -83.5q120 0 206.5 62t86.5 141q0 94 -41.5 184t-117.5 149.5t-164 59.5q-123 0 -195 -84t-72 -213z" />
    <glyph glyph-name="colon" unicode=":" horiz-adv-x="444" 
d="M121 0v211h203v-211h-203zM121 825v211h203v-211h-203z" />
    <glyph glyph-name="semicolon" unicode=";" horiz-adv-x="548" 
d="M94 -207l105 422h198l-149 -422h-154zM203 825v211h203v-211h-203z" />
    <glyph glyph-name="less" unicode="&#x3c;" 
d="M88 516v135l954 426v-182l-731 -309v-4l731 -310v-182z" />
    <glyph glyph-name="equal" unicode="=" 
d="M102 309v160h977v-160h-977zM102 696v160h977v-160h-977z" />
    <glyph glyph-name="greater" unicode="&#x3e;" 
d="M137 90v182l731 310v4l-731 309v182l955 -426v-135z" />
    <glyph glyph-name="question" unicode="?" horiz-adv-x="948" 
d="M76 1343q6 5 16 14t45.5 32t74 40t98.5 31.5t122 14.5q179 0 303.5 -104.5t124.5 -270.5q0 -69 -20 -127.5t-52 -100.5t-70.5 -79.5t-77 -71.5t-70.5 -68.5t-52 -78t-20 -93.5v-84h-193v97q0 63 19 118t50 94.5t68 76t74 69.5t68 66.5t50 76t19 90.5q0 87 -67 145
t-168 58q-57 0 -115.5 -21.5t-88.5 -42.5l-30 -22zM299 0v199h205v-199h-205z" />
    <glyph glyph-name="at" unicode="@" horiz-adv-x="1601" 
d="M98 494q0 156 58.5 296t158.5 241t238.5 160.5t292.5 59.5q115 0 206.5 -22.5t151.5 -61t100 -92t57 -113t17 -126.5v-580h148v-150h-559q-187 0 -305.5 114t-118.5 274q0 102 51.5 189t149.5 140.5t223 53.5h221q-3 91 -91 150.5t-241 59.5q-155 0 -284 -81.5
t-202 -217.5t-73 -294q0 -162 72 -295.5t206 -213t304 -79.5v-162q-169 0 -315 58.5t-248 159.5t-160 239t-58 293zM743 496q0 -101 67.5 -170.5t170.5 -69.5h207v483h-203q-105 0 -173.5 -70.5t-68.5 -172.5z" />
    <glyph glyph-name="A" unicode="A" horiz-adv-x="1361" 
d="M25 0v176h28q29 0 44 9t24 36l452 1225h215l453 -1225q9 -27 24 -36t44 -9h28v-176h-112q-76 0 -110 24t-60 95l-109 297h-530l-109 -297q-26 -71 -60 -95t-110 -24h-112zM465 588h432l-158 440q-11 34 -25.5 84.5t-23.5 84.5l-8 34h-4q-30 -127 -55 -203z" />
    <glyph glyph-name="B" unicode="B" horiz-adv-x="1247" 
d="M68 1270v176h620q187 0 303.5 -99t116.5 -270q0 -112 -51 -192.5t-129 -118.5v-4q111 -33 174 -129t63 -221q0 -99 -37 -178.5t-100.5 -130t-147.5 -77t-180 -26.5h-366q-69 0 -101 31t-32 100v1139h-133zM406 221q0 -45 45 -45h260q113 0 178 67t65 179
q0 111 -66.5 179.5t-178.5 68.5h-303v-449zM406 838h282q96 0 153.5 61.5t57.5 157.5q0 97 -57 155t-158 58h-278v-432z" />
    <glyph glyph-name="C" unicode="C" horiz-adv-x="1429" 
d="M72 735q0 154 55.5 290.5t151.5 234t230.5 154t287.5 56.5q62 0 131.5 -10t143.5 -33.5t132.5 -58t96.5 -89.5t38 -122v-141h-188v82q0 57 -58.5 100t-136.5 62.5t-155 19.5q-221 0 -368.5 -152t-147.5 -393q0 -155 68.5 -285.5t188.5 -206t265 -75.5q59 0 115.5 11
t100.5 28t84 38t68 42.5t48.5 38.5t30.5 28l10 11l110 -148q-8 -10 -24 -26t-71 -58t-116 -74t-158.5 -58t-199.5 -26q-159 0 -296.5 59t-232.5 161t-149.5 242t-54.5 298z" />
    <glyph glyph-name="D" unicode="D" horiz-adv-x="1462" 
d="M68 1270v176h585q335 0 534 -191.5t199 -529.5q0 -340 -199.5 -532.5t-533.5 -192.5h-319q-69 0 -101 31t-32 100v1139h-133zM406 221q0 -45 45 -45h188q247 0 391 143t144 406q0 261 -144.5 403t-390.5 142h-233v-1049z" />
    <glyph glyph-name="E" unicode="E" horiz-adv-x="1169" 
d="M68 1270v176h852q69 0 100 -31t31 -100v-182h-189v92q0 45 -45 45h-411v-453h507v-176h-507v-420q0 -45 45 -45h423q46 0 46 45v92h186v-182q0 -69 -31 -100t-100 -31h-641q-69 0 -101 31t-32 100v1139h-133z" />
    <glyph glyph-name="F" unicode="F" horiz-adv-x="1046" 
d="M68 1270v176h798q69 0 100 -31t31 -100v-182h-186v92q0 45 -45 45h-360v-475h495v-177h-495v-618h-205v1270h-133z" />
    <glyph glyph-name="G" unicode="G" horiz-adv-x="1490" 
d="M72 729q0 154 56 291t152 236t232 156.5t289 57.5q96 0 184.5 -18.5t146.5 -44.5t101.5 -52t63.5 -45l20 -18l-117 -149q-6 6 -18 15t-51.5 33t-82.5 42.5t-109.5 33.5t-133.5 15q-143 0 -262 -70.5t-188.5 -197.5t-69.5 -285q0 -248 149.5 -404.5t374.5 -156.5
q72 0 141 18.5t116 45t83.5 53t54.5 45.5l17 18v146q0 45 -45 45h-89v176h189q70 0 101.5 -31t31.5 -100v-584h-180v90l2 62h-4q-7 -7 -19.5 -19t-56 -42.5t-92 -54t-125.5 -42.5t-158 -19q-144 0 -273 55t-224.5 152t-151 239.5t-55.5 307.5z" />
    <glyph glyph-name="H" unicode="H" horiz-adv-x="1550" 
d="M70 1270v176h206q69 0 100.5 -31t31.5 -100v-506h735v506q0 69 31.5 100t101.5 31h205v-176h-88q-45 0 -45 -45v-1225h-205v635h-735v-635h-205v1225q0 45 -45 45h-88z" />
    <glyph glyph-name="I" unicode="I" horiz-adv-x="651" 
d="M86 0v176h141v1094h-141v176h477v-176h-139v-1094h139v-176h-477z" />
    <glyph glyph-name="J" unicode="J" horiz-adv-x="1046" 
d="M33 416v71h205v-55q0 -72 19.5 -125.5t53 -82.5t72.5 -42.5t84 -13.5q95 0 160 62.5t65 193.5v801q0 45 -45 45h-354v176h471q70 0 101.5 -31t31.5 -100v-899q0 -91 -24.5 -166t-66 -125t-97.5 -84.5t-117 -50t-127 -15.5t-127 15.5t-117 50.5t-97.5 85t-66 125
t-24.5 165z" />
    <glyph glyph-name="K" unicode="K" horiz-adv-x="1253" 
d="M70 1270v176h206q69 0 100.5 -31t31.5 -100v-477h137q44 0 73 10t46 39l321 559h229l-350 -600q-18 -32 -38.5 -55.5t-31.5 -30.5l-12 -8v-4q5 -1 12.5 -5t29.5 -27t40 -59l217 -434q14 -30 37 -38.5t66 -8.5h39v-176h-113q-88 0 -128 20.5t-73 88.5l-250 501
q-17 33 -47.5 43.5t-81.5 10.5h-122v-664h-205v1225q0 45 -45 45h-88z" />
    <glyph glyph-name="L" unicode="L" horiz-adv-x="1107" 
d="M68 1270v176h206q69 0 100.5 -31t31.5 -100v-1094q0 -45 45 -45h401q45 0 45 45v92h186v-182q0 -69 -31 -100t-100 -31h-618q-69 0 -101 31t-32 100v1094q0 45 -45 45h-88z" />
    <glyph glyph-name="M" unicode="M" horiz-adv-x="1765" 
d="M47 0v176h68q42 0 45 45l98 1225h211l340 -764q16 -36 34 -82t28 -74l10 -28h4q36 104 71 184l340 764h211l99 -1225q3 -45 45 -45h69v-176h-182q-69 0 -98 30t-35 101l-57 764q-4 38 -5 91.5t-1 87.5l1 34h-4q-42 -135 -77 -213l-293 -635h-172l-291 635
q-16 34 -35.5 87.5t-30.5 90.5l-12 37h-4v-62q0 -89 -4 -153l-60 -764q-5 -70 -34 -100.5t-97 -30.5h-182z" />
    <glyph glyph-name="N" unicode="N" horiz-adv-x="1550" 
d="M70 0v176h88q45 0 45 45v1225h186l643 -916q24 -35 54 -84t48 -80l19 -32h4q-14 116 -14 196v785q0 69 31.5 100t101.5 31h205v-176h-88q-45 0 -45 -45v-1225h-185l-645 915q-24 35 -53.5 84t-47.5 81l-18 32h-4q13 -117 13 -197v-784q0 -69 -31.5 -100t-100.5 -31h-206z
" />
    <glyph glyph-name="O" unicode="O" horiz-adv-x="1624" 
d="M70 733q0 205 97.5 374t267.5 266t376 97t376.5 -97t268.5 -266t98 -374q0 -210 -98 -384t-268.5 -274t-376.5 -100t-376 100t-267.5 274t-97.5 384zM283 733q0 -157 70.5 -287t191.5 -204t266 -74t266.5 74t192.5 204t71 287q0 114 -42 215.5t-113 174t-169 115
t-206 42.5t-205.5 -42.5t-168.5 -115t-112.5 -174t-41.5 -215.5z" />
    <glyph glyph-name="P" unicode="P" horiz-adv-x="1198" 
d="M68 1270v176h637q201 0 327.5 -124.5t126.5 -328.5q0 -205 -126.5 -331.5t-327.5 -126.5h-299v-535h-205v1270h-133zM406 711h266q129 0 202.5 75.5t73.5 206.5q0 130 -73 203.5t-201 73.5h-268v-559z" />
    <glyph glyph-name="Q" unicode="Q" horiz-adv-x="1624" 
d="M70 731q0 206 97 375.5t266.5 266.5t375.5 97q156 0 294 -57t237 -155t156.5 -235.5t57.5 -291.5q0 -132 -45 -254.5t-125 -220.5l166 -162l-123 -131l-165 166q-192 -154 -453 -154q-205 0 -375 100.5t-267 274t-97 381.5zM283 731q0 -156 69.5 -285.5t190.5 -203.5
t266 -74q53 0 104 10.5t86 25t62 29t40 25.5l13 10l-160 156l123 133l158 -162q106 145 106 336q0 154 -70.5 279.5t-192 196.5t-269.5 71q-146 0 -266.5 -71t-190 -196.5t-69.5 -279.5z" />
    <glyph glyph-name="R" unicode="R" horiz-adv-x="1273" 
d="M68 1270v176h632q192 0 312.5 -114.5t120.5 -309.5q0 -69 -17.5 -130t-45.5 -103t-63.5 -74.5t-69.5 -50.5t-67 -25v-4q37 -19 62 -66l174 -346q16 -30 39 -38.5t65 -8.5h27v-176h-100q-89 0 -129 20t-74 89l-197 389q-25 49 -52.5 63t-88.5 14h-190v-575h-205v1270h-133
zM406 752h268q117 0 182.5 70t65.5 192q0 121 -65 188.5t-181 67.5h-270v-518z" />
    <glyph glyph-name="S" unicode="S" horiz-adv-x="1075" 
d="M59 190l119 146q6 -7 17.5 -19t49 -42t77.5 -52.5t100.5 -41.5t120.5 -19q103 0 174 59t71 156q0 61 -38.5 109.5t-100 83.5t-135.5 68t-148 72.5t-135.5 86.5t-100 120.5t-38.5 165.5q0 165 130 276t333 111q63 0 130 -14.5t132 -44t106.5 -83.5t41.5 -124v-119h-189v68
q0 56 -66.5 93.5t-156.5 37.5q-114 0 -184 -55.5t-70 -138.5q0 -59 38.5 -105t100 -78.5t136 -64t149 -70t136 -87t100 -125t38.5 -173.5q0 -83 -31.5 -157.5t-89 -131t-145 -90t-192.5 -33.5q-87 0 -168 22t-135 53.5t-96 63.5t-62 54z" />
    <glyph glyph-name="T" unicode="T" horiz-adv-x="1294" 
d="M27 1133v190q0 69 27 96t96 27h995q69 0 96 -27t27 -96v-190h-183v92q0 45 -45 45h-290v-1270h-205v1270h-289q-45 0 -45 -45v-92h-184z" />
    <glyph glyph-name="U" unicode="U" horiz-adv-x="1474" 
d="M53 1270v176h205q69 0 101 -31t32 -100v-801q0 -162 93.5 -254t252.5 -92q158 0 252 92.5t94 255.5v799q0 69 31 100t100 31h207v-176h-88q-45 0 -45 -45v-719q0 -237 -151.5 -384t-397.5 -147q-248 0 -400.5 147t-152.5 384v719q0 45 -45 45h-88z" />
    <glyph glyph-name="V" unicode="V" horiz-adv-x="1366" 
d="M23 1270v176h116q77 0 110 -23.5t58 -95.5l318 -891q12 -35 26 -84.5t21 -81.5l8 -32h4q28 120 55 198l318 891q26 72 59.5 95.5t110.5 23.5h116v-176h-28q-29 0 -44.5 -9t-25.5 -36l-454 -1225h-218l-452 1225q-10 27 -25.5 36t-44.5 9h-28z" />
    <glyph glyph-name="W" unicode="W" horiz-adv-x="1980" 
d="M33 1270v176h119q80 0 120 -24.5t56 -94.5l225 -930q8 -35 14.5 -73t9.5 -59l3 -21h4q14 73 34 153l293 1045h183l270 -1045q9 -36 16.5 -74t11.5 -59l3 -20h4q10 75 28 153l226 930q17 70 56 94.5t120 24.5h119v-176h-31q-31 0 -48 -9.5t-24 -35.5l-315 -1225h-240
l-246 913q-11 42 -21 91.5t-15 78.5l-4 29h-5q-18 -105 -45 -197l-264 -915h-239l-316 1225q-7 26 -24 35.5t-48 9.5h-30z" />
    <glyph glyph-name="X" unicode="X" horiz-adv-x="1218" 
d="M25 0l454 745l-291 474q-20 33 -40 42t-56 9h-51v176h119q77 0 116 -21.5t78 -89.5l162 -274l92 -170h4q41 90 88 170l164 274q39 68 78 89.5t115 21.5h121v-176h-54q-35 0 -54.5 -9t-39.5 -42l-293 -474l457 -745h-231l-265 440l-90 164h-4q-43 -86 -88 -166l-262 -438
h-229z" />
    <glyph glyph-name="Y" unicode="Y" horiz-adv-x="1241" 
d="M23 1270v176h94q76 0 114.5 -20.5t79.5 -90.5l219 -364q21 -36 43 -76.5t33 -62.5l12 -23h5q41 82 88 162l217 364q41 69 80 90t114 21h97v-176h-41q-34 0 -52.5 -10t-38.5 -41l-364 -588v-631h-205v631l-366 588q-18 31 -36.5 41t-52.5 10h-40z" />
    <glyph glyph-name="Z" unicode="Z" horiz-adv-x="1228" 
d="M66 0v135l712 1004q24 36 51.5 69t42.5 48l15 16v4q-39 -6 -109 -6h-465q-45 0 -45 -45v-92h-186v182q0 69 31 100t100 31h926v-133l-713 -1006q-25 -36 -52.5 -68.5t-41.5 -47.5l-15 -15v-4q39 4 109 4h510q45 0 45 45v92h186v-182q0 -69 -31 -100t-100 -31h-970z" />
    <glyph glyph-name="bracketleft" unicode="[" horiz-adv-x="577" 
d="M160 -63v1437q0 69 31 100t100 31h209v-149h-121q-45 0 -45 -45v-1309q0 -45 45 -45h121v-152h-209q-69 0 -100 31.5t-31 100.5z" />
    <glyph glyph-name="backslash" unicode="\" horiz-adv-x="845" 
d="M74 1524h176l520 -1610h-176z" />
    <glyph glyph-name="bracketright" unicode="]" horiz-adv-x="577" 
d="M80 -43h119q45 0 45 45v1309q0 45 -45 45h-119v149h207q69 0 101 -31t32 -100v-1437q0 -69 -32 -100.5t-101 -31.5h-207v152z" />
    <glyph glyph-name="asciicircum" unicode="^" horiz-adv-x="1255" 
d="M141 506l410 940h129l410 -940h-181l-295 721l-292 -721h-181z" />
    <glyph glyph-name="underscore" unicode="_" horiz-adv-x="1157" 
d="M29 0h1101v-160h-1101v160z" />
    <glyph glyph-name="grave" unicode="`" horiz-adv-x="776" 
d="M170 1806h201l149 -260h-155z" />
    <glyph glyph-name="a" unicode="a" horiz-adv-x="1083" 
d="M57 283q0 72 26.5 129.5t66.5 94.5t100 64.5t113.5 41t121 21.5t109 9.5t90.5 1.5h45v14q0 132 -54 188t-175 56q-23 0 -48 -3t-54.5 -11t-48.5 -25t-19 -41v-59h-189v104q0 47 28.5 83.5t69 56.5t92.5 32.5t91.5 16.5t73.5 4q100 0 176 -20.5t124 -55.5t78 -87.5
t42 -111t12 -131.5v-440q0 -45 45 -45h84v-170h-189q-127 0 -127 119l2 61h-4q1 0 -4.5 -11.5t-18 -29.5t-30.5 -39.5t-45.5 -43.5t-60.5 -40t-78.5 -29.5t-95.5 -11.5q-143 0 -246 83t-103 225zM256 301q0 -68 52 -118t143 -50q82 0 147.5 51t98 125.5t32.5 153.5v39h-53
q-420 0 -420 -201z" />
    <glyph glyph-name="b" unicode="b" horiz-adv-x="1193" 
d="M8 1276v170h195q69 0 101 -31t32 -100v-338l-4 -86h4q4 7 11.5 18.5t36 40.5t63 51.5t94 41t127.5 18.5q208 0 332 -150t124 -393q0 -244 -133 -393.5t-340 -149.5q-65 0 -122 18t-92.5 43.5t-62 51.5t-37.5 44l-11 18h-4q4 -33 4 -78v-72h-189v1231q0 45 -45 45h-84z
M330 514q0 -96 31 -177.5t99.5 -136.5t162.5 -55q128 0 213.5 100t85.5 271q0 167 -81.5 269t-211.5 102q-128 0 -213.5 -93.5t-85.5 -279.5z" />
    <glyph glyph-name="c" unicode="c" horiz-adv-x="1085" 
d="M68 518q0 152 69 275.5t197 195.5t291 72q53 0 112 -11.5t120 -35.5t100.5 -71t39.5 -109v-107h-180v57q0 50 -62.5 78.5t-129.5 28.5q-154 0 -255.5 -104t-101.5 -267q0 -170 106.5 -269t260.5 -99q55 0 108 14.5t90 35.5t66 42.5t43 35.5l14 15l84 -141
q-6 -7 -17.5 -19t-51 -43t-84.5 -54.5t-117 -43t-149 -19.5q-243 0 -398 154t-155 389z" />
    <glyph glyph-name="d" unicode="d" horiz-adv-x="1230" 
d="M72 518q0 245 130.5 394t336.5 149q67 0 124.5 -16.5t92 -40t59 -47t33.5 -39.5l10 -17h4q-2 31 -2 70v260q0 45 -45 45h-84v170h195q70 0 101.5 -31t31.5 -100v-1100q0 -45 45 -45h84v-170h-191q-127 0 -127 111l2 53h-4q-4 -8 -11 -20.5t-35.5 -45t-64 -57.5t-97 -45.5
t-132.5 -20.5q-209 0 -332.5 149.5t-123.5 393.5zM272 518q0 -168 82 -269.5t213 -101.5q126 0 211.5 93.5t85.5 279.5q0 96 -30.5 177.5t-99 136.5t-163.5 55q-127 0 -213 -100t-86 -271z" />
    <glyph glyph-name="e" unicode="e" horiz-adv-x="1103" 
d="M68 518q0 121 40 223.5t109.5 172t165 108.5t205.5 39q107 0 193 -38.5t140.5 -105t83.5 -154t29 -188.5q0 -35 -6 -83h-756q9 -161 111 -253t248 -92q32 0 64 5t60.5 15t50.5 19t46 24t35 22.5t30 21.5l19 14l84 -145q-24 -20 -57.5 -41.5t-86 -47.5t-121 -42.5
t-137.5 -16.5q-160 0 -286 71.5t-195 195t-69 276.5zM281 635h555q-4 129 -75 200.5t-177 71.5q-117 0 -199.5 -72.5t-103.5 -199.5z" />
    <glyph glyph-name="f" unicode="f" horiz-adv-x="647" 
d="M45 877v159h129v35q0 97 29 170.5t70.5 113t98.5 64t101.5 31t91.5 6.5q20 0 39 -1.5t28 -2.5l9 -2v-170q-20 4 -51 4q-36 0 -68 -7.5t-68.5 -28t-58.5 -67t-22 -114.5v-31h245v-159h-245v-877h-199v877h-129z" />
    <glyph glyph-name="g" unicode="g" horiz-adv-x="1216" 
d="M72 543q0 150 52.5 266t156.5 184t245 68q73 0 134 -16.5t96.5 -40.5t60.5 -48t34 -40l9 -17h4q-2 17 -2 33q0 48 29 76t88 28h192v-170h-84q-45 0 -45 -41v-782q0 -99 -29 -180t-78.5 -134.5t-117 -90t-141.5 -52.5t-156 -16q-183 0 -352 86l65 160q14 -8 40 -19.5
t100.5 -31t142.5 -19.5q146 0 238 70.5t92 218.5v69l2 66h-4q-96 -158 -307 -158q-141 0 -248 70.5t-162 190.5t-55 270zM274 547q0 -163 81.5 -263t219.5 -100q57 0 104 18.5t86.5 58t62 111t22.5 169.5q0 348 -293 348q-134 0 -208.5 -91.5t-74.5 -250.5z" />
    <glyph glyph-name="h" unicode="h" horiz-adv-x="1239" 
d="M8 1276v170h195q69 0 101 -30.5t32 -96.5v-404l-4 -86h4q40 89 141 160.5t242 71.5q182 0 269 -98.5t87 -298.5v-449q0 -45 45 -45h84v-170h-196q-69 0 -100 31t-31 100v487q0 60 -7.5 103t-27.5 81t-60 57.5t-100 19.5q-117 0 -207 -71t-123 -185q-16 -55 -16 -138v-485
h-199v1231q0 45 -45 45h-84z" />
    <glyph glyph-name="i" unicode="i" horiz-adv-x="542" 
d="M43 866v170h195q70 0 101.5 -31t31.5 -100v-690q0 -45 45 -45h84v-170h-197q-69 0 -100 31t-31 100v690q0 45 -45 45h-84zM176 1239v207h178v-207h-178z" />
    <glyph glyph-name="j" unicode="j" horiz-adv-x="501" 
d="M-96 -248q18 -2 45 -2q28 0 53.5 4t58 18t56 37t39.5 66.5t16 101.5v844q0 45 -45 45h-84v170h197q69 0 100 -31t31 -100v-940q0 -99 -30 -173t-72.5 -113.5t-100.5 -63.5t-103 -30.5t-92 -6.5l-69 4v170zM176 1239v207h178v-207h-178z" />
    <glyph glyph-name="k" unicode="k" horiz-adv-x="1050" 
d="M8 1276v170h195q71 0 102 -26t31 -93v-672h92q75 0 107 45l239 336h230l-283 -385q-21 -28 -40.5 -47.5t-28.5 -25.5l-9 -5v-4q1 0 4 -1.5t10.5 -7t15.5 -13t19 -22.5t21 -33l153 -281q13 -25 31.5 -33t58.5 -8h62v-170h-144q-71 0 -104 18.5t-65 77.5l-191 348
q-22 43 -102 43h-76v-487h-199v1231q0 45 -45 45h-84z" />
    <glyph glyph-name="l" unicode="l" horiz-adv-x="509" 
d="M10 1276v170h195q69 0 100 -31t31 -100v-1100q0 -45 45 -45h84v-170h-195q-69 0 -101 31t-32 100v1100q0 45 -45 45h-82z" />
    <glyph glyph-name="m" unicode="m" horiz-adv-x="1912" 
d="M45 866v170h191q131 0 131 -114v-39l-2 -60h4q39 96 138.5 167t215.5 71q257 0 313 -236h4q43 98 144.5 167t222.5 69q174 0 258 -99t84 -298v-449q0 -45 45 -45h84v-170h-197q-69 0 -100 31t-31 100v490q0 60 -7 103t-26 80.5t-56 57t-93 19.5q-103 0 -182 -78
t-107 -189q-18 -64 -18 -141v-473h-199v621q0 46 -3 79.5t-14 69.5t-30 59t-52 37.5t-79 14.5q-107 0 -186.5 -79t-110.5 -196q-14 -57 -14 -133v-473h-199v821q0 45 -45 45h-84z" />
    <glyph glyph-name="n" unicode="n" horiz-adv-x="1275" 
d="M45 866v170h191q131 0 131 -114v-39l-5 -60h5q17 38 47.5 76t77 76t116.5 62t150 24q181 0 267.5 -98.5t86.5 -298.5v-449q0 -45 45 -45h84v-170h-197q-69 0 -100 31t-31 100v487q0 60 -7.5 103t-27 81t-59.5 57.5t-100 19.5q-117 0 -206 -70t-122 -184q-18 -53 -18 -140
v-485h-199v821q0 45 -45 45h-84z" />
    <glyph glyph-name="o" unicode="o" horiz-adv-x="1251" 
d="M68 520q0 153 74.5 277.5t202 194t280.5 69.5q115 0 217.5 -41t178 -112t119.5 -172t44 -216q0 -154 -75 -279.5t-203 -195.5t-281 -70t-280.5 70t-202 195.5t-74.5 279.5zM268 520q0 -160 104.5 -266.5t252.5 -106.5q150 0 253 106t103 267q0 159 -103 264t-253 105
q-149 0 -253 -105t-104 -264z" />
    <glyph glyph-name="p" unicode="p" horiz-adv-x="1230" 
d="M45 866v170h186q127 0 127 -104l-2 -55h4q4 7 11 19.5t36 44.5t65 56t98.5 44t134.5 20q209 0 332.5 -149.5t123.5 -393.5q0 -245 -132 -394t-339 -149q-64 0 -120.5 17t-91 41.5t-59.5 49t-35 41.5l-11 17h-4q4 -37 4 -90v-461h-199v1231q0 45 -45 45h-84zM367 514
q0 -95 32 -177.5t101 -137t162 -54.5q126 0 211 100t85 271q0 168 -81 269.5t-211 101.5q-60 0 -112 -21.5t-95 -65t-67.5 -117.5t-24.5 -169z" />
    <glyph glyph-name="q" unicode="q" horiz-adv-x="1232" 
d="M72 518q0 245 130.5 394t336.5 149q69 0 128.5 -18t95.5 -44t62 -52t37 -44l10 -18h5q-3 22 -3 53q0 98 127 98h187v-170h-84q-45 0 -45 -45v-1231h-199v469l4 91h-4q-4 -7 -11 -19t-35.5 -42t-63 -53t-94.5 -42t-128 -19q-209 0 -332.5 149.5t-123.5 393.5zM272 518
q0 -168 82 -269.5t213 -101.5q126 0 211.5 93.5t85.5 279.5q0 96 -30.5 177.5t-99 136.5t-163.5 55q-127 0 -213 -100t-86 -271z" />
    <glyph glyph-name="r" unicode="r" horiz-adv-x="770" 
d="M45 866v170h191q67 0 99 -29.5t32 -91.5v-65l-5 -72h5q39 119 125 195t202 76l54 -5v-196q-27 6 -58 6q-98 0 -177.5 -65t-115.5 -179q-24 -79 -24 -186v-424h-199v821q0 45 -45 45h-84z" />
    <glyph glyph-name="s" unicode="s" horiz-adv-x="919" 
d="M57 158l101 133q5 -6 14.5 -16.5t41.5 -37t66 -47t87 -37t106 -16.5q77 0 127.5 34.5t50.5 98.5q0 37 -31 68t-80.5 54.5t-109.5 47t-120.5 52.5t-110 65t-80.5 90.5t-31 122.5q0 142 108.5 216.5t276.5 74.5q52 0 106 -10t109 -31t90 -62.5t35 -97.5v-98h-178v51
q0 28 -27 49t-61.5 30t-67.5 9q-90 0 -142 -31.5t-52 -91.5q0 -40 31.5 -71t81.5 -54t110 -45t120.5 -50t110.5 -63t81.5 -90.5t31.5 -125.5q0 -136 -108 -220t-273 -84q-77 0 -148 19t-117.5 45.5t-81.5 53.5t-51 46z" />
    <glyph glyph-name="t" unicode="t" horiz-adv-x="671" 
d="M35 877v159h139v285h195v-285h249v-159h-249v-476q0 -59 16 -103.5t39.5 -68.5t55.5 -38.5t57.5 -18.5t52.5 -4l47 4v-176q-29 -4 -70 -4q-48 0 -93 6.5t-103 30.5t-100 63.5t-71.5 113.5t-29.5 173v498h-135z" />
    <glyph glyph-name="u" unicode="u" horiz-adv-x="1263" 
d="M35 866v170h194q69 0 100 -30.5t31 -96.5v-491q0 -59 8 -101.5t28 -80t60 -57t99 -19.5q103 0 181.5 55.5t117.5 143.5t39 192v485h199v-821q0 -45 45 -45h84v-170h-191q-131 0 -131 115v39l2 59h-4q-38 -90 -140 -164t-241 -74q-177 0 -264.5 97t-87.5 301v448
q0 45 -45 45h-84z" />
    <glyph glyph-name="v" unicode="v" horiz-adv-x="1093" 
d="M29 866v170h102q69 0 102 -21.5t56 -82.5l223 -596q9 -25 18 -59t14 -55l5 -21h4q17 78 37 135l221 596q23 61 56.5 82.5t101.5 21.5h96v-170h-21q-52 0 -65 -41l-317 -825h-230l-319 825q-13 41 -64 41h-20z" />
    <glyph glyph-name="w" unicode="w" horiz-adv-x="1730" 
d="M31 866v170h125q70 0 102.5 -22.5t52.5 -87.5l183 -617l24 -110h4q13 57 29 110l223 723h184l224 -723q7 -24 13.5 -51.5t9.5 -43.5l3 -15h4q11 57 27 110l182 617q20 65 52 87.5t102 22.5h125v-170h-29q-26 0 -40 -8.5t-23 -32.5l-273 -825h-223l-215 666l-29 112h-4
q-12 -59 -28 -112l-215 -666h-224l-272 825q-9 24 -24.5 32.5t-41.5 8.5h-28z" />
    <glyph glyph-name="x" unicode="x" horiz-adv-x="1034" 
d="M41 0l350 532l-198 295q-16 24 -35 31.5t-52 7.5h-59v170h127q73 0 107 -19.5t75 -84.5l125 -201l33 -65h4q19 38 35 65l125 201q41 65 75 84.5t107 19.5h127v-170h-59q-32 0 -50.5 -7.5t-35.5 -29.5l-199 -297l350 -532h-225l-217 338l-33 55h-4q-15 -30 -31 -55
l-217 -338h-225z" />
    <glyph glyph-name="y" unicode="y" horiz-adv-x="1112" 
d="M4 -328l82 144q2 -5 20 -21.5t55.5 -34.5t76.5 -18q59 0 105.5 39t76.5 110l47 113l-354 821q-10 24 -24 32.5t-40 8.5h-26v170h116q63 0 94 -21.5t56 -82.5l233 -584q9 -24 18 -55t14 -51l5 -19h4q17 72 35 125l217 584q21 61 53.5 82.5t96.5 21.5h118v-170h-26
q-26 0 -41 -8.5t-25 -32.5l-407 -1011q-49 -118 -137.5 -181t-198.5 -63q-43 0 -84 10.5t-69 25.5t-49.5 30t-31.5 26z" />
    <glyph glyph-name="z" unicode="z" horiz-adv-x="1054" 
d="M76 0v115l530 655q19 24 40 48t32 36l12 12v4q-30 -4 -98 -4h-285q-45 0 -45 -45v-69h-182v153q0 69 32 100t101 31h739v-114l-530 -658q-19 -24 -40.5 -47.5t-33.5 -34.5l-12 -12v-4q32 4 100 4h330q45 0 45 45v70h182v-154q0 -69 -31 -100t-100 -31h-786z" />
    <glyph glyph-name="braceleft" unicode="{" horiz-adv-x="661" 
d="M51 578v176q7 1 19 3t42 16t52.5 36t41.5 67t19 105v172q0 92 26 161t62 105t85.5 57.5t85.5 27t73 5.5l47 -2v-151h-29q-20 0 -38.5 -3t-45 -16t-45.5 -35t-33 -63.5t-14 -97.5v-211q0 -57 -17 -104.5t-41.5 -75t-49 -47t-41.5 -26.5l-17 -7v-4q7 -2 18 -6.5t39.5 -24.5
t50.5 -46t40 -75t18 -108v-236q0 -56 14 -97.5t33 -63.5t45.5 -35t45 -16t38.5 -3h29v-152q-18 -4 -47 -4q-37 0 -73 5.5t-85.5 27.5t-85.5 58.5t-62 105.5t-26 162v196q0 59 -18 103.5t-43.5 66t-51 35t-43.5 16.5z" />
    <glyph glyph-name="bar" unicode="|" horiz-adv-x="489" 
d="M158 -326v1948h174v-1948h-174z" />
    <glyph glyph-name="braceright" unicode="}" horiz-adv-x="661" 
d="M57 -45h29q20 0 38.5 3t45 16t45.5 35t33 63.5t14 97.5v236q0 59 17 107.5t41.5 75.5t49 45.5t41.5 25.5l17 6v4q-7 2 -18 7t-39.5 26t-50.5 47.5t-40 74.5t-18 105v211q0 56 -14 97.5t-33 63.5t-45.5 35t-45 16t-38.5 3h-29v151q18 2 47 2q37 0 73 -5.5t85.5 -27
t85.5 -57.5t62 -105t26 -161v-172q0 -60 18 -105t43.5 -67t51 -36t43.5 -17l18 -2v-176q-7 -1 -19 -3t-42 -16t-52.5 -35.5t-41.5 -66t-19 -103.5v-196q0 -93 -26 -162t-62 -105.5t-85.5 -58.5t-85.5 -27.5t-73 -5.5l-47 4v152z" />
    <glyph glyph-name="asciitilde" unicode="~" horiz-adv-x="1210" 
d="M119 418q0 174 75.5 260t211.5 86q50 0 92.5 -15t70 -37t56 -48.5t51 -48.5t55 -37t68.5 -15q50 0 81.5 31.5t42.5 72.5t11 89h162q0 -175 -74.5 -260.5t-210.5 -85.5q-59 0 -107.5 20.5t-80 49.5t-60.5 58t-65.5 49.5t-79.5 20.5q-38 0 -65.5 -17.5t-42 -46.5t-21 -60.5
t-6.5 -65.5h-164z" />
    <glyph glyph-name="uni00A0" unicode="&#xa0;" horiz-adv-x="550" 
 />
    <glyph glyph-name="cent" unicode="&#xa2;" 
d="M121 723q0 149 49 272t145 204t224 99v226h149v-226q129 -20 224 -103t149 -214l-182 -70q-38 93 -103 148t-155 55q-139 0 -218 -110t-79 -281q0 -176 77.5 -282.5t219.5 -106.5q91 0 155.5 55t102.5 148l182 -72q-52 -126 -147 -213.5t-226 -101.5v-228h-149v228
q-128 18 -224 98.5t-145 203.5t-49 271z" />
    <glyph glyph-name="sterling" unicode="&#xa3;" 
d="M94 0v176h125v477h-90v144h90v278q0 171 126 283t319 112q58 0 114.5 -13.5t96 -33t70.5 -38.5t46 -33l15 -13l-117 -141q-11 10 -30.5 24.5t-78 39t-114.5 24.5q-111 0 -176.5 -62.5t-65.5 -156.5v-270h377v-144h-377v-477h442q45 0 45 45v92h189v-182q0 -69 -31 -100
t-100 -31h-875z" />
    <glyph glyph-name="yen" unicode="&#xa5;" horiz-adv-x="1263" 
d="M33 1270v176h90q78 0 119 -21t82 -90l217 -364l88 -160h4q41 80 88 160l219 364q39 69 80 90t119 21h90v-176h-35q-35 0 -54.5 -8.5t-37.5 -36.5l-228 -371v-4h187v-129h-270l-58 -90v-84h328v-129h-328v-418h-205v418h-327v129h327v84l-55 90h-278v129h192v4l-229 371
q-16 28 -35.5 36.5t-54.5 8.5h-35z" />
    <glyph glyph-name="dieresis" unicode="&#xa8;" horiz-adv-x="1026" 
d="M291 1599v207h151v-207h-151zM629 1599v207h149v-207h-149z" />
    <glyph glyph-name="copyright" unicode="&#xa9;" horiz-adv-x="1644" 
d="M90 723q0 153 57.5 291.5t155 238.5t232 158.5t282.5 58.5q202 0 371 -99.5t266.5 -271t97.5 -376.5q0 -153 -57.5 -291.5t-155.5 -238.5t-234.5 -159t-287.5 -59q-197 0 -364.5 99.5t-265 272t-97.5 376.5zM242 723q0 -126 44.5 -239t121 -193.5t183 -128t226.5 -47.5
q122 0 231 47t187 128t123 194t45 239t-45 239t-123 194t-187 128t-231 47q-120 0 -226.5 -47.5t-183 -128t-121 -193.5t-44.5 -239zM430 721q0 108 48.5 201t142 150.5t213.5 57.5q66 0 124.5 -21t95 -50.5t63.5 -59t39 -50.5l11 -21l-125 -68q-3 5 -8.5 14t-24.5 31
t-41 39t-57 31t-73 14q-116 0 -185 -78.5t-69 -189.5q0 -114 68 -191t186 -77q38 0 73.5 13.5t58 32.5t40 37.5t24.5 31.5l8 14l125 -68q-4 -8 -12 -22t-38 -49t-65 -61.5t-94 -48.5t-124 -22q-180 0 -292 120.5t-112 289.5z" />
    <glyph glyph-name="guillemotleft" unicode="&#xab;" horiz-adv-x="1124" 
d="M84 578l336 421h198l-335 -421l335 -420h-198zM498 578l336 421h198l-336 -421l336 -420h-198z" />
    <glyph glyph-name="uni00AD" unicode="&#xad;" horiz-adv-x="839" 
d="M121 496v176h598v-176h-598z" />
    <glyph glyph-name="registered" unicode="&#xae;" horiz-adv-x="1644" 
d="M90 723q0 153 57.5 291.5t155 238.5t232 158.5t282.5 58.5q202 0 371 -99.5t266.5 -271t97.5 -376.5q0 -153 -57.5 -291.5t-155.5 -238.5t-234.5 -159t-287.5 -59q-197 0 -364.5 99.5t-265 272t-97.5 376.5zM242 723q0 -126 44.5 -239t121 -193.5t183 -128t226.5 -47.5
q122 0 231 47t187 128t123 194t45 239t-45 239t-123 194t-187 128t-231 47q-120 0 -226.5 -47.5t-183 -128t-121 -193.5t-44.5 -239zM500 1001v111h366q109 0 176.5 -64t67.5 -171q0 -82 -44 -136.5t-97 -68.5v-4q25 -6 43 -41l80 -154q13 -27 49 -27h22v-106h-80
q-45 0 -68 10.5t-42 46.5l-105 203q-12 24 -28 31.5t-43 7.5h-84v-299h-146v661h-67zM713 745h123q58 0 91.5 35t33.5 97q0 59 -32.5 91.5t-90.5 32.5h-125v-256z" />
    <glyph glyph-name="acute" unicode="&#xb4;" horiz-adv-x="794" 
d="M244 1546l149 260h201l-195 -260h-155z" />
    <glyph glyph-name="cedilla" unicode="&#xb8;" horiz-adv-x="851" 
d="M229 -291q41 -14 88 -14q97 0 97 63q0 31 -30 47.5t-79 16.5l-35 -2l58 227l100 -20v-17l-22 -112q64 -8 104.5 -47t40.5 -103q0 -89 -60 -130.5t-149 -41.5q-28 0 -56 3.5t-42 6.5l-15 4v119z" />
    <glyph glyph-name="guillemotright" unicode="&#xbb;" horiz-adv-x="1124" 
d="M92 158l336 420l-336 421h199l336 -421l-336 -420h-199zM506 158l336 420l-336 421h199l335 -421l-335 -420h-199z" />
    <glyph glyph-name="circumflex" unicode="&#x2c6;" horiz-adv-x="993" 
d="M227 1546l179 260h182l180 -260h-162l-106 164h-4l-109 -164h-160z" />
    <glyph glyph-name="ring" unicode="&#x2da;" horiz-adv-x="778" 
d="M223 1673q0 70 48.5 112t117.5 42q68 0 117 -42.5t49 -111.5q0 -68 -49 -109.5t-117 -41.5q-69 0 -117.5 41.5t-48.5 109.5zM319 1673q0 -29 19.5 -48t50.5 -19t50.5 19t19.5 48q0 32 -19.5 52t-50.5 20t-50.5 -20t-19.5 -52z" />
    <glyph glyph-name="tilde" unicode="&#x2dc;" horiz-adv-x="1062" 
d="M188 1548q0 260 211 260q39 0 72 -14.5t56 -35t43.5 -40.5t44 -34.5t47.5 -14.5q42 0 62.5 40.5t20.5 92.5h134q0 -128 -53.5 -194t-157.5 -66q-38 0 -71 14.5t-56 35t-43.5 40.5t-43.5 34.5t-48 14.5q-42 0 -62 -40t-20 -93h-136z" />
    <glyph glyph-name="uni0400" unicode="&#x400;" horiz-adv-x="1169" 
d="M68 1270v176h852q69 0 100 -31t31 -100v-182h-189v92q0 45 -45 45h-411v-453h507v-176h-507v-420q0 -45 45 -45h423q46 0 46 45v92h186v-182q0 -69 -31 -100t-100 -31h-641q-69 0 -101 31t-32 100v1139h-133zM389 1806h201l149 -260h-155z" />
    <glyph glyph-name="afii10023" unicode="&#x401;" horiz-adv-x="1169" 
d="M68 1270v176h852q69 0 100 -31t31 -100v-182h-189v92q0 45 -45 45h-411v-453h507v-176h-507v-420q0 -45 45 -45h423q46 0 46 45v92h186v-182q0 -69 -31 -100t-100 -31h-641q-69 0 -101 31t-32 100v1139h-133zM377 1599v207h151v-207h-151zM715 1599v207h149v-207h-149z
" />
    <glyph glyph-name="afii10051" unicode="&#x402;" horiz-adv-x="1529" 
d="M29 1133v190q0 69 27.5 96t97.5 27h993v-168h-469v-412l-2 -63h4q77 38 176 61t182 23q217 0 335 -120.5t118 -317.5q0 -221 -127 -347.5t-328 -126.5q-19 0 -55 2.5t-41 2.5v172q15 -5 70 -5q52 0 98.5 14.5t89 46t67.5 90t25 138.5q0 124 -73 197.5t-220 73.5
q-77 0 -157 -21t-121 -42l-41 -21v-623h-205v1278h-229q-45 0 -45 -45v-100h-170z" />
    <glyph glyph-name="afii10052" unicode="&#x403;" horiz-adv-x="1052" 
d="M68 1270v176h827q69 0 100 -31t31 -100v-182h-186v92q0 45 -45 45h-389v-1270h-205v1270h-133zM479 1546l150 260h200l-194 -260h-156z" />
    <glyph glyph-name="afii10053" unicode="&#x404;" horiz-adv-x="1421" 
d="M70 731q0 208 94 377.5t258.5 265.5t365.5 96q65 0 136 -10t146 -33.5t134 -58t97 -89.5t38 -122v-133h-188v82q0 57 -58.5 99.5t-136.5 61.5t-157 19q-208 0 -350 -135t-162 -350h757v-168h-753q25 -207 166.5 -340t349.5 -133q79 0 154.5 19.5t127 47t92 55t59.5 46.5
l20 20l106 -139q-8 -10 -24 -25.5t-70 -56t-114.5 -71t-157 -56t-197.5 -25.5q-159 0 -296.5 59.5t-232.5 161.5t-149.5 241t-54.5 294z" />
    <glyph glyph-name="afii10054" unicode="&#x405;" horiz-adv-x="1075" 
d="M59 190l119 146q6 -7 17.5 -19t49 -42t77.5 -52.5t100.5 -41.5t120.5 -19q103 0 174 59t71 156q0 61 -38.5 109.5t-100 83.5t-135.5 68t-148 72.5t-135.5 86.5t-100 120.5t-38.5 165.5q0 165 130 276t333 111q63 0 130 -14.5t132 -44t106.5 -83.5t41.5 -124v-119h-189v68
q0 56 -66.5 93.5t-156.5 37.5q-114 0 -184 -55.5t-70 -138.5q0 -59 38.5 -105t100 -78.5t136 -64t149 -70t136 -87t100 -125t38.5 -173.5q0 -83 -31.5 -157.5t-89 -131t-145 -90t-192.5 -33.5q-87 0 -168 22t-135 53.5t-96 63.5t-62 54z" />
    <glyph glyph-name="afii10055" unicode="&#x406;" horiz-adv-x="645" 
d="M84 0v176h141v1094h-141v176h477v-176h-139v-1094h139v-176h-477z" />
    <glyph glyph-name="afii10056" unicode="&#x407;" horiz-adv-x="645" 
d="M80 1599v207h151v-207h-151zM84 0v176h141v1094h-141v176h477v-176h-139v-1094h139v-176h-477zM418 1599v207h149v-207h-149z" />
    <glyph glyph-name="afii10057" unicode="&#x408;" horiz-adv-x="1046" 
d="M33 416v71h205v-55q0 -72 19.5 -125.5t53 -82.5t72.5 -42.5t84 -13.5q95 0 160 62.5t65 193.5v801q0 45 -45 45h-354v176h471q70 0 101.5 -31t31.5 -100v-899q0 -91 -24.5 -166t-66 -125t-97.5 -84.5t-117 -50t-127 -15.5t-127 15.5t-117 50.5t-97.5 85t-66 125
t-24.5 165z" />
    <glyph glyph-name="afii10058" unicode="&#x409;" horiz-adv-x="1910" 
d="M20 -14v186q91 10 154 71.5t99.5 178.5t52.5 273.5t16 375.5v199h-135v176h801q70 0 101.5 -31t31.5 -100v-465h254q73 0 139 -13t128.5 -43.5t107.5 -77t72.5 -118.5t27.5 -162q0 -144 -65.5 -244t-172.5 -146t-246 -46h-319q-69 0 -100 31t-31 100v1094q0 45 -45 45
h-346v-199q0 -143 -6 -257.5t-21 -227.5t-40.5 -198.5t-65.5 -160.5t-94.5 -124.5t-129.5 -80t-168 -36.5zM1141 217q0 -45 45 -45h211q125 0 193.5 69t68.5 189t-67.5 184t-192.5 64h-258v-461z" />
    <glyph glyph-name="afii10059" unicode="&#x40a;" horiz-adv-x="2052" 
d="M70 1270v176h206q69 0 100.5 -31t31.5 -100v-471h671v602h205v-602h260q72 0 137.5 -13t127 -43.5t106 -76t71.5 -116t27 -157.5q0 -143 -65.5 -243.5t-172.5 -147.5t-243 -47h-322q-69 0 -100 31t-31 100v541h-671v-672h-205v1225q0 45 -45 45h-88zM1284 217
q0 -45 45 -45h215q120 0 189 71t69 191q0 110 -68 174t-188 64h-262v-455z" />
    <glyph glyph-name="afii10060" unicode="&#x40b;" horiz-adv-x="1603" 
d="M29 1133v190q0 69 27.5 96t97.5 27h993v-168h-469v-420l-4 -65h4q177 96 373 96q205 0 306 -109.5t101 -312.5v-254q0 -37 45 -37h88v-176h-205q-70 0 -101.5 31t-31.5 100v293q0 141 -59 211t-188 70q-98 0 -186 -32.5t-142 -70.5v-602h-205v1278h-229q-45 0 -45 -45
v-100h-170z" />
    <glyph glyph-name="afii10061" unicode="&#x40c;" horiz-adv-x="1253" 
d="M70 1270v176h206q69 0 100.5 -31t31.5 -100v-477h137q44 0 73 10t46 39l321 559h229l-350 -600q-18 -32 -38.5 -55.5t-31.5 -30.5l-12 -8v-4q5 -1 12.5 -5t29.5 -27t40 -59l217 -434q14 -30 37 -38.5t66 -8.5h39v-176h-113q-88 0 -128 20.5t-73 88.5l-250 501
q-17 33 -47.5 43.5t-81.5 10.5h-122v-664h-205v1225q0 45 -45 45h-88zM571 1546l150 260h201l-195 -260h-156z" />
    <glyph glyph-name="uni040D" unicode="&#x40d;" horiz-adv-x="1562" 
d="M70 1270v176h206q69 0 100.5 -31t31.5 -100v-793q0 -36 -3 -88t-7 -86l-3 -33h4q78 131 129 209l631 922h201v-1225q0 -45 45 -45h88v-176h-205q-70 0 -101.5 31t-31.5 100v795q0 36 3 88.5t6 87.5l3 35h-4q-72 -133 -123 -211l-634 -926h-203v1225q0 45 -45 45h-88z
M528 1806h201l150 -260h-156z" />
    <glyph glyph-name="afii10062" unicode="&#x40e;" horiz-adv-x="1273" 
d="M20 1270v176h125q70 0 102 -24.5t64 -94.5l293 -625q19 -40 38 -84.5t28 -69.5l10 -24h4q24 78 61 178l228 625q26 72 59.5 95.5t110.5 23.5h110v-176h-32q-29 0 -44.5 -9t-25.5 -34l-393 -996q-100 -256 -320 -256q-86 0 -162.5 34t-107.5 65l94 151q74 -63 152 -63
q62 0 98 39t66 123l-449 901q-12 25 -27 35t-41 10h-41zM336 1776v30h160v-28q0 -64 42.5 -100t100.5 -36q59 0 102 36.5t43 101.5v26h158v-30q0 -121 -88.5 -192t-214.5 -71q-125 0 -214 71t-89 192z" />
    <glyph glyph-name="afii10145" unicode="&#x40f;" horiz-adv-x="1515" 
d="M68 1270v176h206q69 0 100.5 -31t31.5 -100v-1094q0 -45 45 -45h614q45 0 45 45v1094q0 69 31 100t100 31h207v-176h-88q-45 0 -45 -45v-1094q0 -69 -31.5 -100t-101.5 -31h-332v-287h-184v287h-332q-69 0 -101 31t-32 100v1094q0 45 -45 45h-88z" />
    <glyph glyph-name="afii10017" unicode="&#x410;" horiz-adv-x="1361" 
d="M25 0v176h28q29 0 44 9t24 36l452 1225h215l453 -1225q9 -27 24 -36t44 -9h28v-176h-112q-76 0 -110 24t-60 95l-109 297h-530l-109 -297q-26 -71 -60 -95t-110 -24h-112zM465 588h432l-158 440q-11 34 -25.5 84.5t-23.5 84.5l-8 34h-4q-30 -127 -55 -203z" />
    <glyph glyph-name="afii10018" unicode="&#x411;" horiz-adv-x="1216" 
d="M68 1270v176h845q69 0 100 -31t31 -100v-182h-186v92q0 45 -45 45h-407v-418h268q95 0 179 -23.5t154 -72t111 -132t41 -192.5q0 -106 -38 -189.5t-105 -136t-154 -79.5t-188 -27h-340q-69 0 -101 31t-32 100v1139h-133zM406 217q0 -45 45 -45h235q121 0 191.5 69.5
t70.5 186.5t-70 184.5t-192 67.5h-280v-463z" />
    <glyph glyph-name="afii10019" unicode="&#x412;" horiz-adv-x="1259" 
d="M68 1270v176h632q187 0 303.5 -99t116.5 -270q0 -112 -51 -192.5t-129 -118.5v-4q112 -33 175 -129t63 -221q0 -99 -37 -178.5t-100.5 -130t-147.5 -77t-180 -26.5h-379q-69 0 -101 31t-32 100v1139h-133zM403 221q0 -45 46 -45h276q113 0 178.5 67.5t65.5 178.5
t-67 179.5t-177 68.5h-322v-449zM403 838h299q96 0 153.5 61.5t57.5 157.5q0 97 -56.5 155t-156.5 58h-297v-432z" />
    <glyph glyph-name="afii10020" unicode="&#x413;" horiz-adv-x="1052" 
d="M68 1270v176h827q69 0 100 -31t31 -100v-182h-186v92q0 45 -45 45h-389v-1270h-205v1270h-133z" />
    <glyph glyph-name="afii10021" unicode="&#x414;" horiz-adv-x="1478" 
d="M20 47q0 70 30 99.5t100 29.5h32q58 82 100.5 181t65.5 191.5t36.5 204.5t17.5 199.5t4 196.5v121h-132v176h850q69 0 100 -31t31 -100v-1139h45q70 0 100 -29.5t30 -99.5v-334h-189v242q0 45 -43 45h-946q-43 0 -43 -45v-242h-189v334zM395 176h658v1049q0 45 -45 45
h-406v-133q0 -648 -207 -961z" />
    <glyph glyph-name="afii10022" unicode="&#x415;" horiz-adv-x="1169" 
d="M68 1270v176h852q69 0 100 -31t31 -100v-182h-189v92q0 45 -45 45h-411v-453h507v-176h-507v-420q0 -45 45 -45h423q46 0 46 45v92h186v-182q0 -69 -31 -100t-100 -31h-641q-69 0 -101 31t-32 100v1139h-133z" />
    <glyph glyph-name="afii10024" unicode="&#x416;" horiz-adv-x="1810" 
d="M14 0l385 655q19 32 42.5 55.5t36.5 31.5l14 8v4l-12 6t-29 27t-39 57l-209 379q-16 30 -38.5 38.5t-64.5 8.5h-41v176h103q85 0 122.5 -20.5t73.5 -88.5l244 -446q20 -35 48 -46t77 -11h80v612h197v-612h75q48 0 78.5 11t50.5 46l244 446q37 69 73.5 89t123.5 20h102
v-176h-41q-42 0 -64.5 -8.5t-39.5 -38.5l-207 -379q-18 -34 -38 -56.5t-31 -27.5l-11 -6v-4q5 -3 14.5 -8.5t33.5 -30t42 -56.5l387 -655h-225l-352 608q-22 36 -48.5 48t-68.5 12h-98v-668h-197v668h-98q-42 0 -68.5 -12t-48.5 -48l-352 -608h-226z" />
    <glyph glyph-name="afii10025" unicode="&#x417;" horiz-adv-x="1083" 
d="M41 168l121 143q53 -59 144.5 -106t189.5 -47q127 0 213 69.5t86 188.5q0 112 -77 176.5t-192 64.5h-172v168h148q105 0 177.5 66.5t72.5 171.5q0 101 -63.5 163t-184.5 62q-95 0 -161.5 -40t-66.5 -97v-59h-188v112q0 69 41.5 123t108 83.5t138.5 44.5t144 15
q210 0 324 -103t114 -273q0 -222 -208 -328v-4q120 -34 188 -128.5t68 -225.5q0 -191 -140.5 -312t-365.5 -121q-148 0 -266 55.5t-193 137.5z" />
    <glyph glyph-name="afii10026" unicode="&#x418;" horiz-adv-x="1562" 
d="M70 1270v176h206q69 0 100.5 -31t31.5 -100v-793q0 -36 -3 -88t-7 -86l-3 -33h4q78 131 129 209l631 922h201v-1225q0 -45 45 -45h88v-176h-205q-70 0 -101.5 31t-31.5 100v795q0 36 3 88.5t6 87.5l3 35h-4q-72 -133 -123 -211l-634 -926h-203v1225q0 45 -45 45h-88z" />
    <glyph glyph-name="afii10027" unicode="&#x419;" horiz-adv-x="1562" 
d="M70 1270v176h206q69 0 100.5 -31t31.5 -100v-793q0 -36 -3 -88t-7 -86l-3 -33h4q78 131 129 209l631 922h201v-1225q0 -45 45 -45h88v-176h-205q-70 0 -101.5 31t-31.5 100v795q0 36 3 88.5t6 87.5l3 35h-4q-72 -133 -123 -211l-634 -926h-203v1225q0 45 -45 45h-88z
M471 1776v30h160v-28q0 -64 42.5 -100t100.5 -36q59 0 102.5 36.5t43.5 101.5v26h157v-30q0 -121 -88.5 -192t-214.5 -71q-125 0 -214 71t-89 192z" />
    <glyph glyph-name="afii10028" unicode="&#x41a;" horiz-adv-x="1253" 
d="M70 1270v176h206q69 0 100.5 -31t31.5 -100v-477h137q44 0 73 10t46 39l321 559h229l-350 -600q-18 -32 -38.5 -55.5t-31.5 -30.5l-12 -8v-4q5 -1 12.5 -5t29.5 -27t40 -59l217 -434q14 -30 37 -38.5t66 -8.5h39v-176h-113q-88 0 -128 20.5t-73 88.5l-250 501
q-17 33 -47.5 43.5t-81.5 10.5h-122v-664h-205v1225q0 45 -45 45h-88z" />
    <glyph glyph-name="afii10029" unicode="&#x41b;" horiz-adv-x="1398" 
d="M20 -10v186q178 24 254 251.5t76 682.5v160h-135v176h850q69 0 100 -31t31 -100v-1094q0 -45 45 -45h88v-176h-207q-69 0 -100 31t-31 100v1094q0 45 -45 45h-401v-162q0 -214 -16 -380.5t-54 -304.5t-98 -229.5t-149.5 -144t-207.5 -59.5z" />
    <glyph glyph-name="afii10030" unicode="&#x41c;" horiz-adv-x="1765" 
d="M47 0v176h68q42 0 45 45l98 1225h211l340 -764q16 -36 34 -82t28 -74l10 -28h4q36 104 71 184l340 764h211l99 -1225q3 -45 45 -45h69v-176h-182q-69 0 -98 30t-35 101l-57 764q-4 38 -5 91.5t-1 87.5l1 34h-4q-42 -135 -77 -213l-293 -635h-172l-291 635
q-16 34 -35.5 87.5t-30.5 90.5l-12 37h-4q2 -129 -4 -215l-60 -764q-5 -70 -34 -100.5t-97 -30.5h-182z" />
    <glyph glyph-name="afii10031" unicode="&#x41d;" horiz-adv-x="1550" 
d="M70 1270v176h206q69 0 100.5 -31t31.5 -100v-506h735v506q0 69 31.5 100t101.5 31h205v-176h-88q-45 0 -45 -45v-1225h-205v635h-735v-635h-205v1225q0 45 -45 45h-88z" />
    <glyph glyph-name="afii10032" unicode="&#x41e;" horiz-adv-x="1624" 
d="M70 733q0 205 97.5 374t267.5 266t376 97t376.5 -97t268.5 -266t98 -374q0 -210 -98 -384t-268.5 -274t-376.5 -100t-376 100t-267.5 274t-97.5 384zM283 733q0 -157 70.5 -287t191.5 -204t266 -74t266.5 74t192.5 204t71 287q0 114 -42 215.5t-113 174t-169 115
t-206 42.5t-205.5 -42.5t-168.5 -115t-112.5 -174t-41.5 -215.5z" />
    <glyph glyph-name="afii10033" unicode="&#x41f;" horiz-adv-x="1525" 
d="M68 1270v176h1124q69 0 100 -31t31 -100v-1094q0 -45 45 -45h88v-176h-205q-70 0 -101.5 31t-31.5 100v1094q0 45 -45 45h-667v-1270h-205v1270h-133z" />
    <glyph glyph-name="afii10034" unicode="&#x420;" horiz-adv-x="1198" 
d="M68 1270v176h637q201 0 327.5 -124.5t126.5 -328.5q0 -205 -126.5 -331.5t-327.5 -126.5h-299v-535h-205v1270h-133zM406 711h266q129 0 202.5 75.5t73.5 206.5q0 130 -73 203.5t-201 73.5h-268v-559z" />
    <glyph glyph-name="afii10035" unicode="&#x421;" horiz-adv-x="1429" 
d="M72 735q0 154 55.5 290.5t151.5 234t230.5 154t287.5 56.5q62 0 131.5 -10t143.5 -33.5t132.5 -58t96.5 -89.5t38 -122v-141h-188v82q0 57 -58.5 100t-136.5 62.5t-155 19.5q-221 0 -368.5 -152t-147.5 -393q0 -155 68.5 -285.5t188.5 -206t265 -75.5q59 0 115.5 11
t100.5 28t84 38t68 42.5t48.5 38.5t30.5 28l10 11l110 -148q-8 -10 -24 -26t-71 -58t-116 -74t-158.5 -58t-199.5 -26q-159 0 -296.5 59t-232.5 161t-149.5 242t-54.5 298z" />
    <glyph glyph-name="afii10036" unicode="&#x422;" horiz-adv-x="1294" 
d="M27 1133v190q0 69 27 96t96 27h995q69 0 96 -27t27 -96v-190h-183v92q0 45 -45 45h-290v-1270h-205v1270h-289q-45 0 -45 -45v-92h-184z" />
    <glyph glyph-name="afii10037" unicode="&#x423;" horiz-adv-x="1273" 
d="M20 1270v176h125q70 0 102 -24.5t64 -94.5l293 -625q19 -40 38 -84.5t28 -69.5l10 -24h4q24 78 61 178l228 625q26 72 59.5 95.5t110.5 23.5h110v-176h-32q-29 0 -44.5 -9t-25.5 -34l-393 -996q-100 -256 -320 -256q-86 0 -162.5 34t-107.5 65l94 151q74 -63 152 -63
q62 0 98 39t66 123l-449 901q-12 25 -27 35t-41 10h-41z" />
    <glyph glyph-name="afii10038" unicode="&#x424;" horiz-adv-x="1679" 
d="M63 770q0 271 183 435.5t491 164.5v166h205v-166q305 0 488.5 -164.5t183.5 -435.5q0 -276 -182.5 -442t-489.5 -166v-187h-205v187q-308 0 -491 166t-183 442zM274 770q0 -203 123 -318.5t340 -115.5v860q-216 0 -339.5 -114t-123.5 -312zM942 336q215 0 338 115.5
t123 318.5q0 198 -123 312t-338 114v-860z" />
    <glyph glyph-name="afii10039" unicode="&#x425;" horiz-adv-x="1218" 
d="M25 0l454 745l-291 474q-20 33 -40 42t-56 9h-51v176h119q77 0 116 -21.5t78 -89.5l162 -274l92 -170h4q41 90 88 170l164 274q39 68 78 89.5t115 21.5h121v-176h-54q-35 0 -54.5 -9t-39.5 -42l-293 -474l457 -745h-231l-265 440l-90 164h-4q-43 -86 -88 -166l-262 -438
h-229z" />
    <glyph glyph-name="afii10040" unicode="&#x426;" horiz-adv-x="1538" 
d="M68 1270v176h206q69 0 100.5 -31t31.5 -100v-1094q0 -45 45 -45h661v1270h205v-1270h39q69 0 99 -29.5t30 -99.5v-334h-185v242q0 45 -40 45h-926q-69 0 -101 31t-32 100v1094q0 45 -45 45h-88z" />
    <glyph glyph-name="afii10041" unicode="&#x427;" horiz-adv-x="1333" 
d="M29 1270v176h207q69 0 100 -31t31 -100v-295q0 -141 68 -211t218 -70q90 0 173.5 30.5t134.5 68.5v608h204v-1446h-204v586l4 67h-4q-180 -100 -355 -100q-223 0 -333.5 109.5t-110.5 312.5v250q0 45 -45 45h-88z" />
    <glyph glyph-name="afii10042" unicode="&#x428;" horiz-adv-x="2078" 
d="M68 1270v176h206q69 0 100.5 -31t31.5 -100v-1094q0 -45 45 -45h485v1270h205v-1270h487q45 0 45 45v1094q0 69 31 100t100 31h207v-176h-88q-45 0 -45 -45v-1094q0 -69 -31.5 -100t-101.5 -31h-1411q-69 0 -101 31t-32 100v1094q0 45 -45 45h-88z" />
    <glyph glyph-name="afii10043" unicode="&#x429;" horiz-adv-x="2107" 
d="M68 1270v176h206q69 0 100.5 -31t31.5 -100v-1094q0 -45 45 -45h485v1270h205v-1270h530v1270h205v-1270h57q69 0 99 -29.5t30 -99.5v-334h-184v242q0 45 -41 45h-1503q-69 0 -101 31t-32 100v1094q0 45 -45 45h-88z" />
    <glyph glyph-name="afii10044" unicode="&#x42a;" horiz-adv-x="1503" 
d="M29 1133v190q0 69 27 96t96 27h688v-176h-133v-377h292q97 0 179.5 -26.5t146.5 -79t100.5 -138.5t36.5 -198q0 -147 -67 -250.5t-177 -152t-251 -48.5h-334q-69 0 -100 31t-31 100v1139h-246q-45 0 -45 -45v-92h-182zM707 221q0 -45 45 -45h227q126 0 199 72t73 201
t-73 198.5t-199 69.5h-272v-496z" />
    <glyph glyph-name="afii10045" unicode="&#x42b;" horiz-adv-x="1751" 
d="M68 1270v176h206q69 0 100.5 -31t31.5 -100v-414h276q97 0 179.5 -27t146 -80t99.5 -138.5t36 -194.5q0 -224 -137.5 -342.5t-356.5 -118.5h-315q-69 0 -101 31t-32 100v1094q0 45 -45 45h-88zM406 221q0 -45 45 -45h211q125 0 197.5 74t72.5 205q0 129 -72 199.5
t-198 70.5h-256v-504zM1343 131v1315h205v-1225q0 -45 45 -45h88v-176h-206q-69 0 -100.5 31t-31.5 100z" />
    <glyph glyph-name="afii10046" unicode="&#x42c;" horiz-adv-x="1193" 
d="M68 1270v176h206q69 0 100.5 -31t31.5 -100v-414h284q97 0 179.5 -26.5t146 -79t99.5 -138.5t36 -196q0 -114 -38 -203.5t-105.5 -145t-156.5 -84t-194 -28.5h-323q-69 0 -101 31t-32 100v1094q0 45 -45 45h-88zM406 221q0 -45 45 -45h219q126 0 198 74.5t72 208.5
q0 127 -72 196.5t-198 69.5h-264v-504z" />
    <glyph glyph-name="afii10047" unicode="&#x42d;" horiz-adv-x="1423" 
d="M57 199l107 143q54 -62 181.5 -122t272.5 -60q209 0 353 135t164 342h-746v168h746q-14 212 -154.5 346.5t-351.5 134.5q-59 0 -120.5 -11.5t-116 -33t-89.5 -57t-35 -78.5v-82h-188v133q0 93 82 166.5t205 110t258 36.5q214 0 381 -96.5t256.5 -262t89.5 -370.5
q0 -209 -92 -383.5t-261 -278.5t-381 -104q-94 0 -187 22.5t-164.5 58t-124 72t-85.5 71.5z" />
    <glyph glyph-name="afii10048" unicode="&#x42e;" horiz-adv-x="2164" 
d="M70 1270v176h206q69 0 100.5 -31t31.5 -100v-506h245q11 140 71.5 263t154.5 210t221 137.5t268 50.5q202 0 369 -97t262.5 -266t95.5 -374q0 -157 -56.5 -297.5t-153 -241.5t-231.5 -160t-286 -59q-138 0 -263.5 50.5t-218.5 138t-154 209.5t-75 262h-249v-635h-205
v1225q0 45 -45 45h-88zM856 733q0 -117 40.5 -222.5t109 -180t163 -118.5t199.5 -44t200 44t164 118.5t109.5 180t40.5 222.5q0 114 -40.5 215.5t-109.5 174t-164 115t-200 42.5t-199.5 -42.5t-163 -115t-109 -174t-40.5 -215.5z" />
    <glyph glyph-name="afii10049" unicode="&#x42f;" horiz-adv-x="1275" 
d="M39 0v176h27q41 0 64.5 9t39.5 38l190 322q14 23 32.5 40t29.5 23l12 6v4q-15 1 -46 12t-77 41t-85.5 71.5t-68 113t-28.5 156.5q0 199 131.5 316.5t337.5 117.5h610v-176h-133v-1270h-205v555h-172q-60 0 -87.5 -16t-59.5 -70l-211 -358q-38 -69 -77 -90t-124 -21h-100z
M340 1004q0 -125 79 -199t202 -74h249v539h-249q-129 0 -205 -70.5t-76 -195.5z" />
    <glyph glyph-name="afii10065" unicode="&#x430;" horiz-adv-x="1083" 
d="M57 283q0 72 26.5 129.5t66.5 94.5t100 64.5t113.5 41t121 21.5t109 9.5t90.5 1.5h45v14q0 132 -54 188t-175 56q-23 0 -48 -3t-54.5 -11t-48.5 -25t-19 -41v-59h-189v104q0 47 28.5 83.5t69 56.5t92.5 32.5t91.5 16.5t73.5 4q100 0 176 -20.5t124 -55.5t78 -87.5
t42 -111t12 -131.5v-440q0 -45 45 -45h84v-170h-189q-127 0 -127 119l2 61h-4q1 0 -4.5 -11.5t-18 -29.5t-30.5 -39.5t-45.5 -43.5t-60.5 -40t-78.5 -29.5t-95.5 -11.5q-143 0 -246 83t-103 225zM256 301q0 -68 52 -118t143 -50q82 0 147.5 51t98 125.5t32.5 153.5v39h-53
q-420 0 -420 -201z" />
    <glyph glyph-name="afii10066" unicode="&#x431;" horiz-adv-x="1165" 
d="M92 610q0 133 16 231t55 182.5t108.5 146.5t172.5 108l228 100q72 31 95.5 52.5t23.5 56.5v49h192v-90q0 -33 -5.5 -59t-19.5 -47t-29 -36t-43 -30.5t-51.5 -26t-64.5 -26.5l-244 -105q-236 -102 -243 -366h2q69 106 159 149t201 43q197 0 321 -130t124 -347
q0 -221 -140 -355.5t-360 -134.5q-108 0 -194 33.5t-142 91t-93 139t-53 173t-16 198.5zM301 465q0 -148 83.5 -234t209.5 -86q124 0 207.5 85.5t83.5 230.5q0 147 -82.5 231t-204.5 84q-130 0 -213.5 -88t-83.5 -223z" />
    <glyph glyph-name="afii10067" unicode="&#x432;" horiz-adv-x="1062" 
d="M41 866v170h557q160 0 252 -69t92 -197q0 -84 -39 -140.5t-106 -84.5v-4q93 -21 144.5 -89.5t51.5 -156.5q0 -141 -104 -218t-277 -77h-327q-61 0 -88 27t-27 86v753h-129zM369 182q0 -41 39 -41h172q105 0 158 43.5t53 120.5t-55 119.5t-156 42.5h-211v-285zM369 600
h194q86 0 132 41t46 111q0 71 -47 108t-137 37h-188v-297z" />
    <glyph glyph-name="afii10068" unicode="&#x433;" horiz-adv-x="899" 
d="M45 866v170h686q71 0 102 -28.5t31 -98.5v-157h-166v69q0 45 -45 45h-280v-866h-199v866h-129z" />
    <glyph glyph-name="afii10069" unicode="&#x434;" horiz-adv-x="1208" 
d="M20 37q0 67 29 98t96 31h17q58 68 96 157.5t53 188.5t19 163.5t4 143.5v47h-127v170h686q69 0 100 -31t31 -100v-739h33q67 0 96 -31t29 -98v-283h-183v201q0 45 -43 45h-710q-43 0 -43 -45v-201h-183v283zM362 166h463v655q0 45 -45 45h-258v-45q0 -453 -160 -655z" />
    <glyph glyph-name="afii10070" unicode="&#x435;" horiz-adv-x="1103" 
d="M68 518q0 121 40 223.5t109.5 172t165 108.5t205.5 39q107 0 193 -38t140.5 -104.5t83.5 -154t29 -189.5q0 -37 -6 -77h-756q9 -163 111.5 -257t247.5 -94q81 0 161.5 32.5t143.5 88.5l84 -145q-74 -68 -184 -108t-218 -40q-160 0 -286 71.5t-195 195t-69 276.5zM281 629
h555q-4 132 -75 204t-177 72q-117 0 -199.5 -73.5t-103.5 -202.5z" />
    <glyph glyph-name="afii10072" unicode="&#x436;" horiz-adv-x="1542" 
d="M33 0l248 426q23 38 52.5 63t47.5 31l18 6v4q-5 2 -14.5 6t-31 25t-36.5 51l-106 213q-12 25 -31 33t-61 8h-53v170h122q75 0 109.5 -17.5t64.5 -78.5l134 -268q33 -62 118 -62h62v426h192v-426h60q86 0 119 62l133 268q30 61 64.5 78.5t109.5 17.5h123v-170h-54
q-40 0 -59.5 -8t-32.5 -33l-106 -213q-14 -30 -34.5 -50.5t-34.5 -25.5l-13 -6v-4q3 -1 8 -2t19.5 -8.5t28 -17t31.5 -29t32 -43.5l249 -426h-231l-205 360q-29 47 -64 64.5t-81 17.5h-62v-442h-192v442h-62q-47 0 -82 -17t-65 -65l-203 -360h-231z" />
    <glyph glyph-name="afii10073" unicode="&#x437;" horiz-adv-x="903" 
d="M47 127l94 131q24 -24 52.5 -46t92.5 -48.5t130 -26.5q93 0 154 44t61 128q0 76 -53.5 116t-157.5 40h-131v137h104q96 0 149.5 40.5t53.5 117.5q0 75 -49.5 113t-130.5 38q-40 0 -76.5 -9.5t-64 -33t-27.5 -57.5v-47h-166v96q0 66 51.5 113t128.5 67.5t170 20.5
q167 0 266 -73t99 -208q0 -91 -44 -150t-110 -83v-4q82 -22 134 -84.5t52 -161.5q0 -102 -56 -176.5t-145.5 -110t-199.5 -35.5q-218 0 -381 152z" />
    <glyph glyph-name="afii10074" unicode="&#x438;" horiz-adv-x="1267" 
d="M47 866v170h182q69 0 100 -30t31 -99v-493q0 -104 -8 -144h4q21 42 97 144l446 622h197v-821q0 -45 43 -45h82v-170h-183q-69 0 -100 31t-31 100v492q0 81 8 145h-4q-18 -40 -96 -145l-446 -623h-197v821q0 45 -43 45h-82z" />
    <glyph glyph-name="afii10075" unicode="&#x439;" horiz-adv-x="1267" 
d="M47 866v170h182q69 0 100 -30t31 -99v-493q0 -104 -8 -144h4q21 42 97 144l446 622h197v-821q0 -45 43 -45h82v-170h-183q-69 0 -100 31t-31 100v492q0 81 8 145h-4q-18 -40 -96 -145l-446 -623h-197v821q0 45 -43 45h-82zM328 1417v31h159v-29q0 -64 42.5 -99.5
t101.5 -35.5t102 36t43 101v27h158v-31q0 -121 -88.5 -191.5t-214.5 -70.5q-125 0 -214 70.5t-89 191.5z" />
    <glyph glyph-name="afii10076" unicode="&#x43a;" horiz-adv-x="1091" 
d="M45 866v170h197q69 0 100 -31t31 -100v-276h86q76 0 108 47l248 360h223l-284 -411q-20 -29 -39.5 -48.5t-28.5 -24.5l-10 -5v-4q4 -2 11.5 -6t28.5 -24t38 -48l151 -254q15 -25 33 -33t57 -8h62v-170h-144q-73 0 -106.5 18.5t-65.5 77.5l-184 322q-16 25 -39 33t-61 8
h-84v-459h-199v821q0 45 -45 45h-84z" />
    <glyph glyph-name="afii10077" unicode="&#x43b;" horiz-adv-x="1116" 
d="M27 -6v176q53 1 96 41.5t70 104t45 146.5t25 163t7 161v80h-129v170h670q69 0 100 -31t31 -100v-690q0 -45 45 -45h84v-170h-194q-71 0 -102.5 31t-31.5 100v690q0 45 -45 45h-237v-82q0 -64 -4 -127t-16 -144t-31 -151t-52.5 -139.5t-77.5 -119t-109 -79.5t-144 -30z
" />
    <glyph glyph-name="afii10078" unicode="&#x43c;" horiz-adv-x="1488" 
d="M39 0v170h53q36 0 39 39l72 827h217l270 -594l53 -129h2q29 68 56 129l268 594h217l72 -827q3 -39 39 -39h53v-170h-152q-61 0 -84 26.5t-28 86.5l-39 489l-4 184h-4q-25 -75 -62 -155l-241 -506h-189l-237 506q-15 34 -30 73t-22 62l-8 22h-4q0 -123 -4 -186l-39 -489
q-5 -60 -28.5 -86.5t-84.5 -26.5h-151z" />
    <glyph glyph-name="afii10079" unicode="&#x43d;" horiz-adv-x="1269" 
d="M45 866v170h197q69 0 100 -31t31 -100v-293h524v424h199v-821q0 -45 45 -45h82v-170h-195q-69 0 -100 31t-31 100v315h-524v-446h-199v821q0 45 -45 45h-84z" />
    <glyph glyph-name="afii10080" unicode="&#x43e;" horiz-adv-x="1251" 
d="M68 520q0 153 74.5 277.5t202 194t280.5 69.5q115 0 217.5 -41t178 -112t119.5 -172t44 -216q0 -154 -75 -279.5t-203 -195.5t-281 -70t-280.5 70t-202 195.5t-74.5 279.5zM268 520q0 -160 104.5 -266.5t252.5 -106.5q150 0 253 106t103 267q0 159 -103 264t-253 105
q-149 0 -253 -105t-104 -264z" />
    <glyph glyph-name="afii10081" unicode="&#x43f;" horiz-adv-x="1243" 
d="M45 866v170h895q69 0 100 -31t31 -100v-690q0 -45 45 -45h84v-170h-196q-69 0 -100.5 31t-31.5 100v690q0 45 -45 45h-454v-866h-199v866h-129z" />
    <glyph glyph-name="afii10082" unicode="&#x440;" horiz-adv-x="1230" 
d="M45 866v170h186q127 0 127 -104l-2 -55h4q4 7 11 19.5t36 44.5t65 56t98.5 44t134.5 20q209 0 332.5 -149.5t123.5 -393.5q0 -245 -132 -394t-339 -149q-64 0 -120.5 17t-91 41.5t-59.5 49t-35 41.5l-11 17h-4q4 -37 4 -90v-461h-199v1231q0 45 -45 45h-84zM367 514
q0 -95 32 -177.5t101 -137t162 -54.5q126 0 211 100t85 271q0 168 -81 269.5t-211 101.5q-60 0 -112 -21.5t-95 -65t-67.5 -117.5t-24.5 -169z" />
    <glyph glyph-name="afii10083" unicode="&#x441;" horiz-adv-x="1085" 
d="M68 518q0 152 69 275.5t197 195.5t291 72q53 0 112 -11.5t120 -35.5t100.5 -71t39.5 -109v-107h-180v57q0 50 -62.5 78.5t-129.5 28.5q-154 0 -255.5 -104t-101.5 -267q0 -170 106.5 -269t260.5 -99q55 0 108 14.5t90 35.5t66 42.5t43 35.5l14 15l84 -141
q-6 -7 -17.5 -19t-51 -43t-84.5 -54.5t-117 -43t-149 -19.5q-243 0 -398 154t-155 389z" />
    <glyph glyph-name="afii10084" unicode="&#x442;" horiz-adv-x="1089" 
d="M37 752v157q0 68 30.5 97.5t100.5 29.5h754q70 0 100.5 -29.5t30.5 -97.5v-157h-164v69q0 45 -45 45h-201v-866h-197v866h-200q-45 0 -45 -45v-69h-164z" />
    <glyph glyph-name="afii10085" unicode="&#x443;" horiz-adv-x="1112" 
d="M6 -328l82 144q2 -5 20 -21.5t55.5 -34.5t76.5 -18q59 0 105.5 39t76.5 110l47 113l-354 821q-10 24 -24 32.5t-40 8.5h-26v170h116q63 0 94 -21.5t56 -82.5l233 -584q9 -24 18 -55t14 -51l5 -19h4q17 72 35 125l217 584q21 61 53.5 82.5t96.5 21.5h118v-170h-26
q-26 0 -41 -8.5t-25 -32.5l-407 -1011q-49 -118 -137.5 -181t-198.5 -63q-43 0 -84 10.5t-69 25.5t-49.5 30t-31.5 26z" />
    <glyph glyph-name="afii10086" unicode="&#x444;" horiz-adv-x="1501" 
d="M70 520q0 231 160 372.5t421 143.5v195q0 45 -45 45h-84v170h197q69 0 100 -31t31 -100v-279q262 -2 422 -143.5t160 -372.5q0 -232 -160.5 -375t-421.5 -145v-410h-199v410q-261 1 -421 144.5t-160 375.5zM270 520q0 -160 103 -259t278 -99v710q-175 0 -278 -97
t-103 -255zM850 162q173 0 276 99t103 259q0 158 -103 255t-276 97v-710z" />
    <glyph glyph-name="afii10087" unicode="&#x445;" horiz-adv-x="1036" 
d="M41 0l350 532l-198 295q-16 24 -35 31.5t-52 7.5h-59v170h127q73 0 107 -19.5t75 -84.5l125 -201l33 -65h4q19 38 35 65l125 201q41 65 75 84.5t107 19.5h127v-170h-59q-32 0 -50.5 -7.5t-35.5 -29.5l-199 -297l350 -532h-225l-217 338l-33 55h-4q-15 -30 -31 -55
l-217 -338h-225z" />
    <glyph glyph-name="afii10088" unicode="&#x446;" horiz-adv-x="1241" 
d="M43 866v170h197q69 0 100 -31t31 -100v-694q0 -45 43 -45h442v870h199v-870h32q67 0 97 -31t30 -98v-283h-184v201q0 45 -41 45h-686q-70 0 -100.5 30t-30.5 99v692q0 45 -45 45h-84z" />
    <glyph glyph-name="afii10089" unicode="&#x447;" horiz-adv-x="1107" 
d="M35 866v170h186q71 0 100 -33.5t29 -97.5v-178q0 -42 8 -74t28.5 -61t61 -44.5t99.5 -15.5q124 0 231 74v430h199v-1036h-199v375l2 65h-2q-123 -80 -291 -80q-161 0 -246 80.5t-85 231.5v149q0 24 -11 34.5t-36 10.5h-74z" />
    <glyph glyph-name="afii10090" unicode="&#x448;" horiz-adv-x="1697" 
d="M43 866v170h197q69 0 100 -31t31 -100v-694q0 -45 43 -45h334v870h198v-870h338q43 0 43 45v694q0 69 31 100t100 31h197v-170h-84q-45 0 -45 -45v-690q0 -69 -31 -100t-100 -31h-1092q-70 0 -100.5 31t-30.5 100v690q0 45 -45 45h-84z" />
    <glyph glyph-name="afii10091" unicode="&#x449;" horiz-adv-x="1712" 
d="M43 866v170h197q69 0 100 -31t31 -100v-698q0 -45 43 -45h334v874h198v-874h381v874h199v-874h43q67 0 96 -31t29 -98v-279h-183v201q0 45 -45 45h-1163q-70 0 -100.5 31t-30.5 100v690q0 45 -45 45h-84z" />
    <glyph glyph-name="afii10092" unicode="&#x44a;" horiz-adv-x="1222" 
d="M37 754v155q0 70 30.5 98.5t100.5 28.5h295q69 0 100 -31t31 -100v-246h209q178 0 278.5 -89.5t100.5 -241.5q0 -150 -105 -239t-274 -89h-293q-61 0 -88 27t-27 86v718q0 46 -41 46h-114q-43 0 -43 -46v-77h-160zM594 184q0 -41 39 -41h145q94 0 148.5 51.5t54.5 135.5
q0 86 -53.5 136t-149.5 50h-184v-332z" />
    <glyph glyph-name="afii10093" unicode="&#x44b;" horiz-adv-x="1482" 
d="M43 866v170h197q67 0 99 -29t32 -89v-261h204q177 0 275 -88.5t98 -240.5q0 -150 -103.5 -239t-269.5 -89h-290q-60 0 -86.5 27t-26.5 86v708q0 45 -45 45h-84zM371 184q0 -41 39 -41h141q92 0 144.5 51t52.5 136q0 86 -51 135t-146 49h-180v-330zM1110 131v905h199v-821
q0 -45 45 -45h82v-170h-195q-69 0 -100 31t-31 100z" />
    <glyph glyph-name="afii10094" unicode="&#x44c;" horiz-adv-x="993" 
d="M43 866v170h197q67 0 98 -28.5t33 -89.5v-261h209q175 0 271.5 -88t96.5 -241q0 -151 -101.5 -239.5t-266.5 -88.5h-295q-60 0 -86.5 27t-26.5 86v708q0 45 -45 45h-84zM371 184q0 -41 39 -41h145q91 0 143 51t52 136q0 86 -50.5 135t-144.5 49h-184v-330z" />
    <glyph glyph-name="afii10095" unicode="&#x44d;" horiz-adv-x="1085" 
d="M53 131l78 141q65 -67 151.5 -101t176.5 -34q141 0 242 85.5t120 223.5h-487v140h489q-18 143 -117.5 228t-230.5 85q-85 0 -158 -29.5t-73 -78.5v-52h-170v86q0 99 113.5 167.5t291.5 68.5q235 0 387 -155t152 -386q0 -237 -154.5 -391t-396.5 -154q-117 0 -225.5 40
t-188.5 116z" />
    <glyph glyph-name="afii10096" unicode="&#x44e;" horiz-adv-x="1697" 
d="M45 866v170h197q69 0 100 -31t31 -100v-305h192q23 202 169.5 331.5t352.5 129.5q150 0 274 -69.5t196.5 -193.5t72.5 -278q0 -155 -72 -280t-195.5 -195t-272.5 -70q-207 0 -355.5 132t-171.5 337h-190v-444h-199v821q0 45 -45 45h-84zM750 520q0 -161 98.5 -267
t241.5 -106q142 0 239.5 106t97.5 267q0 160 -97.5 264.5t-239.5 104.5q-143 0 -241.5 -105t-98.5 -264z" />
    <glyph glyph-name="afii10097" unicode="&#x44f;" horiz-adv-x="1073" 
d="M45 0v170h33q39 0 59 8.5t37 32.5l117 162q25 36 53 53v4q-103 24 -166 99t-63 192q0 141 97.5 228t250.5 87h565v-170h-129v-866h-199v377h-114q-42 0 -61.5 -13t-49.5 -57l-151 -211q-46 -63 -78 -79.5t-107 -16.5h-94zM313 711q0 -87 58.5 -139t154.5 -52h174v379
h-180q-98 0 -152.5 -51t-54.5 -137z" />
    <glyph glyph-name="uni0450" unicode="&#x450;" horiz-adv-x="1103" 
d="M68 518q0 121 40 223.5t109.5 172t165 108.5t205.5 39q107 0 193 -38.5t140.5 -105t83.5 -154t29 -188.5q0 -35 -6 -83h-756q9 -161 111 -253t248 -92q32 0 64 5t60.5 15t50.5 19t46 24t35 22.5t30 21.5l19 14l84 -145q-24 -20 -57.5 -41.5t-86 -47.5t-121 -42.5
t-137.5 -16.5q-160 0 -286 71.5t-195 195t-69 276.5zM281 635h555q-4 129 -75 200.5t-177 71.5q-117 0 -199.5 -72.5t-103.5 -199.5zM340 1448h201l149 -260h-155z" />
    <glyph glyph-name="afii10071" unicode="&#x451;" horiz-adv-x="1103" 
d="M68 518q0 121 40 223.5t109.5 172t165 108.5t205.5 39q107 0 193 -38.5t140.5 -105t83.5 -154t29 -188.5q0 -35 -6 -83h-756q9 -161 111 -253t248 -92q32 0 64 5t60.5 15t50.5 19t46 24t35 22.5t30 21.5l19 14l84 -145q-24 -20 -57.5 -41.5t-86 -47.5t-121 -42.5
t-137.5 -16.5q-160 0 -286 71.5t-195 195t-69 276.5zM281 635h555q-4 129 -75 200.5t-177 71.5q-117 0 -199.5 -72.5t-103.5 -199.5zM332 1241v207h151v-207h-151zM670 1241v207h149v-207h-149z" />
    <glyph glyph-name="afii10099" unicode="&#x452;" horiz-adv-x="1196" 
d="M8 1133v145h129v168h199v-168h422v-145h-422v-336l-4 -86h4q19 41 47 78t71 73.5t105.5 58t136.5 21.5q185 0 282 -100.5t97 -296.5v-588q0 -71 -15.5 -129.5t-40.5 -98t-60 -69t-70 -46.5t-76 -27.5t-72 -13.5t-63 -3q-18 0 -35.5 1.5t-26.5 2.5l-8 2v170q18 -4 45 -4
q28 0 54 4t58.5 18.5t55.5 38t39.5 67t16.5 101.5v529q0 118 -51.5 188t-168.5 70q-115 0 -193.5 -68.5t-111.5 -185.5q-16 -55 -16 -137v-367h-199v1133h-129z" />
    <glyph glyph-name="afii10100" unicode="&#x453;" horiz-adv-x="899" 
d="M45 866v170h686q71 0 102 -28.5t31 -98.5v-157h-166v69q0 45 -45 45h-280v-866h-199v866h-129zM381 1188l149 260h201l-194 -260h-156z" />
    <glyph glyph-name="afii10101" unicode="&#x454;" horiz-adv-x="1083" 
d="M68 518q0 152 69 275.5t197 195.5t291 72q53 0 112 -11.5t120 -35.5t100.5 -71t39.5 -109v-95h-170v54q0 34 -34.5 59.5t-81.5 37t-95 11.5q-141 0 -239 -83.5t-115 -225.5h498v-139h-498q18 -143 120.5 -229.5t244.5 -86.5q59 0 115 14t94 34t68 40.5t44 34.5l15 14
l77 -137q-6 -7 -17.5 -17.5t-51 -38.5t-84.5 -49.5t-117 -39t-149 -17.5q-243 0 -398 154t-155 389z" />
    <glyph glyph-name="afii10102" unicode="&#x455;" horiz-adv-x="919" 
d="M57 158l101 133q5 -6 14.5 -16.5t41.5 -37t66 -47t87 -37t106 -16.5q77 0 127.5 34.5t50.5 98.5q0 37 -31 68t-80.5 54.5t-109.5 47t-120.5 52.5t-110 65t-80.5 90.5t-31 122.5q0 142 108.5 216.5t276.5 74.5q52 0 106 -10t109 -31t90 -62.5t35 -97.5v-98h-178v51
q0 28 -27 49t-61.5 30t-67.5 9q-90 0 -142 -31.5t-52 -91.5q0 -40 31.5 -71t81.5 -54t110 -45t120.5 -50t110.5 -63t81.5 -90.5t31.5 -125.5q0 -136 -108 -220t-273 -84q-77 0 -148 19t-117.5 45.5t-81.5 53.5t-51 46z" />
    <glyph glyph-name="afii10103" unicode="&#x456;" horiz-adv-x="542" 
d="M43 866v170h195q70 0 101.5 -31t31.5 -100v-690q0 -45 45 -45h84v-170h-197q-69 0 -100 31t-31 100v690q0 45 -45 45h-84zM176 1239v207h178v-207h-178z" />
    <glyph glyph-name="afii10104" unicode="&#x457;" horiz-adv-x="542" 
d="M33 1239v207h151v-207h-151zM43 866v170h195q70 0 101.5 -31t31.5 -100v-690q0 -45 45 -45h84v-170h-197q-69 0 -100 31t-31 100v690q0 45 -45 45h-84zM319 1239v207h150v-207h-150z" />
    <glyph glyph-name="afii10105" unicode="&#x458;" horiz-adv-x="501" 
d="M-96 -248q18 -2 45 -2q28 0 53.5 4t58 18t56 37t39.5 66.5t16 101.5v844q0 45 -45 45h-84v170h197q69 0 100 -31t31 -100v-940q0 -99 -30 -173t-72.5 -113.5t-100.5 -63.5t-103 -30.5t-92 -6.5l-69 4v170zM176 1239v207h178v-207h-178z" />
    <glyph glyph-name="afii10106" unicode="&#x459;" horiz-adv-x="1519" 
d="M20 -8v176q67 1 118.5 61t80.5 156t43 200t14 210v71h-129v170h613q67 0 99 -29t32 -89v-267h205q182 0 282.5 -87t100.5 -240q0 -145 -99 -234.5t-284 -89.5h-291q-60 0 -86.5 27t-26.5 86v716q0 45 -45 45h-182v-73q0 -69 -4.5 -137t-17 -150.5t-33 -154t-55 -140.5
t-79.5 -118t-111 -79t-145 -30zM891 184q0 -41 39 -41h145q99 0 154 49.5t55 131.5q0 85 -54.5 133.5t-156.5 48.5h-182v-322z" />
    <glyph glyph-name="afii10107" unicode="&#x45a;" horiz-adv-x="1677" 
d="M45 866v170h197q69 0 100 -31t31 -100v-262h483v393h199v-391h205q177 0 275.5 -86.5t98.5 -228.5q0 -155 -102 -242.5t-272 -87.5h-291q-60 0 -86.5 27t-26.5 86v372h-483v-485h-199v821q0 45 -45 45h-84zM1055 184q0 -41 39 -41h145q95 0 148 49.5t53 133.5
q0 79 -52 124.5t-149 45.5h-184v-312z" />
    <glyph glyph-name="afii10108" unicode="&#x45b;" horiz-adv-x="1243" 
d="M8 1133v145h129v168h199v-168h422v-145h-422v-334l-4 -86h4q41 88 141.5 159.5t241.5 71.5q182 0 269 -98.5t87 -298.5v-332q0 -45 45 -45h84v-170h-196q-69 0 -100 31t-31 100v371q0 60 -7.5 102.5t-27.5 80.5t-60 57.5t-100 19.5q-117 0 -207 -71t-123 -185
q-16 -55 -16 -137v-369h-199v1133h-129z" />
    <glyph glyph-name="afii10109" unicode="&#x45c;" horiz-adv-x="1091" 
d="M45 866v170h197q69 0 100 -31t31 -100v-276h86q76 0 108 47l248 360h223l-284 -411q-20 -29 -39.5 -48.5t-28.5 -24.5l-10 -5v-4q4 -2 11.5 -6t28.5 -24t38 -48l151 -254q15 -25 33 -33t57 -8h62v-170h-144q-73 0 -106.5 18.5t-65.5 77.5l-184 322q-16 25 -39 33t-61 8
h-84v-459h-199v821q0 45 -45 45h-84zM471 1188l150 260h200l-194 -260h-156z" />
    <glyph glyph-name="uni045D" unicode="&#x45d;" horiz-adv-x="1267" 
d="M47 866v170h182q69 0 100 -30t31 -99v-493q0 -104 -8 -144h4q21 42 97 144l446 622h197v-821q0 -45 43 -45h82v-170h-183q-69 0 -100 31t-31 100v492q0 81 8 145h-4q-18 -40 -96 -145l-446 -623h-197v821q0 45 -43 45h-82zM408 1448h200l150 -260h-156z" />
    <glyph glyph-name="afii10110" unicode="&#x45e;" horiz-adv-x="1112" 
d="M6 -328l82 144q2 -5 20 -21.5t55.5 -34.5t76.5 -18q59 0 105.5 39t76.5 110l47 113l-354 821q-10 24 -24 32.5t-40 8.5h-26v170h116q63 0 94 -21.5t56 -82.5l233 -584q9 -24 18 -55t14 -51l5 -19h4q17 72 35 125l217 584q21 61 53.5 82.5t96.5 21.5h118v-170h-26
q-26 0 -41 -8.5t-25 -32.5l-407 -1011q-49 -118 -137.5 -181t-198.5 -63q-43 0 -84 10.5t-69 25.5t-49.5 30t-31.5 26zM258 1417v31h160v-29q0 -64 42.5 -99.5t100.5 -35.5q59 0 102.5 36t43.5 101v27h157v-31q0 -121 -88.5 -191.5t-214.5 -70.5q-125 0 -214 70.5t-89 191.5
z" />
    <glyph glyph-name="afii10193" unicode="&#x45f;" horiz-adv-x="1210" 
d="M43 866v170h197q69 0 100 -31t31 -100v-694q0 -45 43 -45h383q43 0 43 45v694q0 69 32 100t101 31h194v-170h-84q-45 0 -45 -45v-692q0 -69 -30 -99t-99 -30h-215v-246h-178v246h-213q-70 0 -100.5 30t-30.5 99v692q0 45 -45 45h-84z" />
    <glyph glyph-name="afii10146" unicode="&#x462;" horiz-adv-x="1390" 
d="M25 1075v178h360v193h205v-193h397v-178h-397v-227h289q95 0 177.5 -23t150 -70.5t106.5 -128t39 -186.5q0 -108 -39 -194t-105.5 -138.5t-150.5 -80t-178 -27.5h-361q-69 0 -101 31t-32 100v944h-360zM590 217q0 -45 45 -45h239q121 0 194 70t73 194q0 117 -73 178.5
t-194 61.5h-284v-459z" />
    <glyph glyph-name="afii10194" unicode="&#x463;" horiz-adv-x="1099" 
d="M20 940v150h248v356h199v-356h338v-150h-338v-274h215q176 0 277.5 -90t101.5 -238q0 -157 -105 -247.5t-274 -90.5h-301q-60 0 -86.5 27t-26.5 86v827h-248zM467 184q0 -41 39 -41h151q94 0 148.5 53t54.5 138q0 88 -53.5 138t-149.5 50h-190v-338z" />
    <glyph glyph-name="afii10147" unicode="&#x472;" horiz-adv-x="1624" 
d="M70 733q0 154 56.5 290.5t154.5 234.5t236 155t294 57q157 0 295.5 -57t236.5 -155t154.5 -234.5t56.5 -290.5q0 -158 -56.5 -298t-154.5 -241t-236.5 -160t-295.5 -59q-156 0 -294 59t-236 160t-154.5 241t-56.5 298zM281 811h1060q-26 207 -175 342t-355 135
q-208 0 -356 -135t-174 -342zM283 649q26 -213 174 -351t354 -138t354 138t176 351h-1058z" />
    <glyph glyph-name="afii10195" unicode="&#x473;" horiz-adv-x="1247" 
d="M66 520q0 153 75 278t202.5 194t279.5 69q154 0 282 -69.5t202.5 -194t74.5 -277.5q0 -154 -74.5 -279.5t-202 -195.5t-280.5 -70t-281 70t-203 195.5t-75 279.5zM260 461q20 -145 123 -235.5t242 -90.5q138 0 241 90.5t123 235.5h-729zM260 588h727q-22 138 -124 225.5
t-238 87.5q-137 0 -239.5 -87t-125.5 -226z" />
    <glyph glyph-name="afii10148" unicode="&#x474;" horiz-adv-x="1417" 
d="M29 1446h229l358 -1010q12 -35 26 -84.5t22 -81.5l8 -32h4q28 120 55 198l287 848q19 55 38 86.5t49 48.5t63.5 22t91.5 5h135v-176h-45q-73 0 -99.5 -17.5t-48.5 -81.5l-420 -1171h-217z" />
    <glyph glyph-name="afii10196" unicode="&#x475;" horiz-adv-x="1150" 
d="M31 1036h217l262 -700q9 -25 18 -59t14 -55l5 -21h4q17 78 37 135l176 510q37 107 93.5 148.5t166.5 41.5h106v-172h-53q-65 0 -95 -22t-56 -92l-275 -750h-221z" />
    <glyph glyph-name="uni048A" unicode="&#x48a;" horiz-adv-x="1622" 
d="M70 1270v176h206q69 0 100.5 -31t31.5 -100v-793q0 -36 -3 -88t-7 -86l-3 -33h4q78 131 129 209l631 922h201v-1225q0 -45 45 -45h178v-117l-147 -346h-150l82 287h-80q-70 0 -101.5 31t-31.5 100v795q0 36 3 88.5t6 87.5l3 35h-4q-72 -133 -123 -211l-634 -926h-203
v1225q0 45 -45 45h-88zM492 1776v30h159v-28q0 -64 43 -100t101 -36q59 0 102 36.5t43 101.5v26h158v-30q0 -121 -88.5 -192t-214.5 -71q-125 0 -214 71t-89 192z" />
    <glyph glyph-name="uni048B" unicode="&#x48b;" horiz-adv-x="1320" 
d="M47 866v170h182q69 0 100 -30t31 -99v-493q0 -104 -8 -144h4q21 42 97 144l446 622h197v-821q0 -45 43 -45h147v-111l-129 -305h-141l67 246h-45q-69 0 -100 31t-31 100v492q0 81 8 145h-4q-18 -40 -96 -145l-446 -623h-197v821q0 45 -43 45h-82zM336 1417v31h160v-29
q0 -64 42.5 -99.5t100.5 -35.5q59 0 102 36t43 101v27h158v-31q0 -121 -88.5 -191.5t-214.5 -70.5q-125 0 -214 70.5t-89 191.5z" />
    <glyph glyph-name="uni048C" unicode="&#x48c;" horiz-adv-x="1353" 
d="M18 1167v158h324v211h207v-211h375v-158h-375v-286h280q76 0 146 -15t133 -49t109 -83t73 -122.5t27 -162.5q0 -110 -39 -197.5t-106 -141.5t-151.5 -82t-180.5 -28h-365q-69 0 -100 31t-31 100v1036h-326zM549 217q0 -45 45 -45h240q124 0 198 74t74 198q0 123 -77 194
t-204 71h-276v-492z" />
    <glyph glyph-name="uni048D" unicode="&#x48d;" horiz-adv-x="1099" 
d="M20 940v150h248v356h199v-356h338v-150h-338v-274h215q176 0 277.5 -90t101.5 -238q0 -157 -105 -247.5t-274 -90.5h-299q-61 0 -88 27t-27 86v827h-248zM467 184q0 -41 39 -41h151q94 0 148.5 53t54.5 138q0 88 -53.5 138t-149.5 50h-190v-338z" />
    <glyph glyph-name="uni048E" unicode="&#x48e;" horiz-adv-x="1249" 
d="M68 1270v176h655q200 0 326.5 -124.5t126.5 -328.5q0 -210 -136 -340l125 -166l-110 -90l-135 176q-80 -38 -197 -38h-317v-535h-205v1270h-133zM406 692h290q64 0 119 19l-137 180l115 90l137 -184q53 71 53 184q0 135 -76.5 212t-208.5 77h-292v-578z" />
    <glyph glyph-name="uni048F" unicode="&#x48f;" horiz-adv-x="1253" 
d="M45 866v170h186q127 0 127 -104l-2 -55h4q4 7 11 19.5t36 44.5t65 56t98.5 44t134.5 20q209 0 332.5 -149.5t123.5 -393.5q0 -235 -123 -383l111 -133l-111 -96l-112 133q-106 -64 -236 -64q-64 0 -120.5 17t-91 41.5t-59.5 49t-35 41.5l-11 17h-4q4 -37 4 -90v-461h-199
v1231q0 45 -45 45h-84zM367 512q0 -99 32.5 -183t101.5 -138t163 -54q82 0 147 39l-141 172l110 96l135 -161q58 98 58 231q0 168 -86 270.5t-219 102.5q-128 0 -214.5 -94.5t-86.5 -280.5z" />
    <glyph glyph-name="afii10050" unicode="&#x490;" horiz-adv-x="1026" 
d="M68 1270v176h698q45 0 45 45v102h188v-192q0 -69 -31.5 -100t-101.5 -31h-460v-1270h-205v1270h-133z" />
    <glyph glyph-name="afii10098" unicode="&#x491;" horiz-adv-x="854" 
d="M47 866v170h567q45 0 45 45v93h168v-181q0 -68 -30.5 -97.5t-100.5 -29.5h-323v-866h-199v866h-127z" />
    <glyph glyph-name="uni0492" unicode="&#x492;" horiz-adv-x="1048" 
d="M74 618v156h133v496h-133v176h809q70 0 101.5 -31t31.5 -100v-182h-189v92q0 45 -45 45h-370v-496h315v-156h-315v-618h-205v618h-133z" />
    <glyph glyph-name="uni0493" unicode="&#x493;" horiz-adv-x="905" 
d="M45 866v170h686q71 0 102 -28.5t31 -98.5v-157h-166v69q0 45 -45 45h-280v-321h264v-142h-264v-403h-199v403h-127v142h127v321h-129z" />
    <glyph glyph-name="uni0494" unicode="&#x494;" horiz-adv-x="1241" 
d="M68 1278v168h843q70 0 99.5 -29t29.5 -98v-166h-170v80q0 45 -45 45h-419v-483q47 22 128 40.5t152 18.5q88 0 161 -19t135.5 -62t105.5 -109.5t67.5 -165.5t24.5 -226q0 -166 -37.5 -290t-108 -199t-164.5 -111.5t-213 -36.5v166q314 0 314 471q0 214 -78 310t-246 96
q-120 0 -241 -57v-621h-205v1278h-133z" />
    <glyph glyph-name="uni0495" unicode="&#x495;" horiz-adv-x="1038" 
d="M47 866v170h703q72 0 101.5 -23t29.5 -89v-172h-166v75q0 39 -37 39h-305v-364q108 53 229 53q82 0 148 -24t109.5 -64t72 -95t41 -115t12.5 -126q0 -359 -307 -555l-98 141q213 128 213 394q0 57 -11.5 104.5t-37 87.5t-72.5 63t-111 23q-103 0 -188 -53v-336h-199v866
h-127z" />
    <glyph glyph-name="uni0496" unicode="&#x496;" horiz-adv-x="1888" 
d="M14 0l385 655q19 32 42.5 55.5t36.5 31.5l14 8v4l-12 6t-29 27t-39 57l-209 379q-16 30 -38.5 38.5t-64.5 8.5h-41v176h103q85 0 122.5 -20.5t73.5 -88.5l244 -446q20 -35 48 -46t77 -11h80v612h197v-612h75q48 0 78.5 11t50.5 46l244 446q37 69 73.5 89t123.5 20h102
v-176h-41q-42 0 -64.5 -8.5t-39.5 -38.5l-207 -379q-18 -34 -38 -56.5t-31 -27.5l-11 -6v-4q5 -3 14.5 -8.5t33.5 -30t42 -56.5l283 -479h75q69 0 99 -29.5t30 -99.5v-334h-184v242q0 42 -35 45h-106l-352 608q-22 36 -48.5 48t-68.5 12h-98v-668h-197v668h-98
q-42 0 -68.5 -12t-48.5 -48l-352 -608h-226z" />
    <glyph glyph-name="uni0497" unicode="&#x497;" horiz-adv-x="1599" 
d="M33 0l248 426q23 38 52.5 63t47.5 31l18 6v4q-5 2 -14.5 6t-31 25t-36.5 51l-106 213q-12 25 -31 33t-61 8h-53v170h122q75 0 109.5 -17.5t64.5 -78.5l134 -268q33 -62 118 -62h62v426h192v-426h60q86 0 119 62l133 268q30 61 64.5 78.5t109.5 17.5h123v-170h-54
q-40 0 -59.5 -8t-32.5 -33l-106 -213q-14 -30 -34.5 -50.5t-34.5 -25.5l-13 -6v-4q3 -1 8 -2t19.5 -8.5t28 -17t31.5 -29t32 -43.5l151 -260h47q67 0 96 -31t29 -98v-283h-182v201q0 45 -39 45h-84l-205 360q-29 47 -64 64.5t-81 17.5h-62v-442h-192v442h-62q-47 0 -82 -17
t-65 -65l-203 -360h-231z" />
    <glyph glyph-name="uni0498" unicode="&#x498;" horiz-adv-x="1085" 
d="M41 168l121 143q53 -59 144.5 -106t189.5 -47q127 0 213 69.5t86 188.5q0 112 -77 176.5t-192 64.5h-172v168h148q105 0 177.5 66.5t72.5 171.5q0 101 -63.5 163t-184.5 62q-95 0 -161.5 -40t-66.5 -97v-59h-188v112q0 69 41.5 123t108 83.5t138.5 44.5t144 15
q210 0 324 -103t114 -273q0 -222 -208 -328v-4q120 -34 188 -128.5t68 -225.5q0 -165 -107.5 -279.5t-286.5 -142.5v-273h-184v267q-125 13 -223.5 64.5t-163.5 123.5z" />
    <glyph glyph-name="uni0499" unicode="&#x499;" horiz-adv-x="905" 
d="M47 127l94 131q24 -24 52.5 -46t92.5 -48.5t130 -26.5q93 0 154 44t61 128q0 76 -53.5 116t-157.5 40h-131v137h104q96 0 149.5 40.5t53.5 117.5q0 75 -49.5 113t-130.5 38q-40 0 -76.5 -9.5t-64 -33t-27.5 -57.5v-47h-166v96q0 66 51.5 113t128.5 67.5t170 20.5
q167 0 266 -73t99 -208q0 -91 -44 -150t-110 -83v-4q82 -22 134 -84.5t52 -161.5q0 -125 -79.5 -205t-208.5 -104v-234h-179v226q-181 18 -315 147z" />
    <glyph glyph-name="uni049A" unicode="&#x49a;" horiz-adv-x="1296" 
d="M70 1270v176h206q69 0 100.5 -31t31.5 -100v-477h137q44 0 73 10t46 39l321 559h229l-350 -600q-18 -32 -38.5 -55.5t-31.5 -30.5l-12 -8v-4q5 -1 13 -5t30 -27t39 -59l240 -481h61q69 0 98 -29.5t29 -99.5v-334h-182v242q0 45 -43 45h-104l-304 610q-16 32 -47 43
t-82 11h-122v-664h-205v1225q0 45 -45 45h-88z" />
    <glyph glyph-name="uni049B" unicode="&#x49b;" horiz-adv-x="1101" 
d="M45 866v170h197q71 0 101 -25.5t30 -92.5v-281h92q75 0 108 47l242 352h223l-278 -403q-20 -28 -39.5 -47t-28.5 -24l-10 -5v-4q33 -17 68 -80l180 -307h43q58 0 86 -31.5t28 -97.5v-283h-182v201q0 20 -9 32.5t-24 12.5h-75l-246 426q-14 25 -38 33t-62 8h-78v-467h-199
v821q0 45 -45 45h-84z" />
    <glyph glyph-name="uni049C" unicode="&#x49c;" horiz-adv-x="1429" 
d="M70 1270v176h206q69 0 100.5 -31t31.5 -100v-477h147v245h152v-245h20q46 0 74.5 9.5t44.5 39.5l313 559h230l-345 -600q-17 -32 -37.5 -55.5t-32.5 -30.5l-11 -8v-4q5 -1 13 -5t29.5 -27t38.5 -59l211 -434q14 -30 37 -38.5t66 -8.5h41v-176h-115q-88 0 -128 20.5
t-73 88.5l-243 501q-16 34 -46 44t-83 10h-4v-250h-152v250h-147v-664h-205v1225q0 45 -45 45h-88z" />
    <glyph glyph-name="uni049D" unicode="&#x49d;" horiz-adv-x="1218" 
d="M45 866v170h195q72 0 102.5 -25.5t30.5 -92.5v-279h110v188h144v-188q68 0 96 43l225 354h223l-264 -403q-20 -28 -39 -47t-28 -24l-9 -5v-4q37 -21 70 -84l127 -258q12 -25 30.5 -33t59.5 -8h62v-170h-144q-72 0 -105 18t-67 78l-162 330q-22 36 -75 39v-232h-144v234
h-110v-467h-199v821q0 45 -45 45h-84z" />
    <glyph glyph-name="uni049E" unicode="&#x49e;" horiz-adv-x="1269" 
d="M41 1075v154h168v217h205v-217h192v-154h-192v-237h147q89 0 119 49l319 559h230l-350 -600q-17 -32 -37.5 -55.5t-32.5 -30.5l-12 -8v-4q5 -1 13 -5t30 -27t39 -59l217 -434q14 -30 37 -38.5t65 -8.5h41v-176h-115q-87 0 -126.5 20t-73.5 89l-250 501q-16 33 -46.5 43.5
t-82.5 10.5h-131v-664h-205v1075h-168z" />
    <glyph glyph-name="uni049F" unicode="&#x49f;" horiz-adv-x="1073" 
d="M12 1081v142h144v223h198v-223h240v-142h-240v-426h92q75 0 107 45l240 336h229l-283 -385q-21 -28 -40 -47.5t-28 -25.5l-9 -5v-4q4 -1 10.5 -5t24.5 -23.5t34 -48.5l154 -281q13 -25 31.5 -33t58.5 -8h61v-170h-143q-73 0 -105.5 18t-66.5 78l-189 348q-22 43 -102 43
h-76v-487h-198v1081h-144z" />
    <glyph glyph-name="uni04A0" unicode="&#x4a0;" horiz-adv-x="1548" 
d="M27 1133v192q0 68 28.5 94.5t98.5 26.5h688v-176h-133v-432h131q44 0 72.5 10t45.5 39l320 559h229l-350 -600q-17 -32 -37.5 -55.5t-32.5 -30.5l-12 -8v-4q5 -1 13 -5t30 -27t39 -59l217 -434q14 -30 37 -38.5t66 -8.5h41v-176h-115q-88 0 -127.5 20.5t-73.5 88.5
l-250 501q-16 33 -46.5 43.5t-82.5 10.5h-114v-664h-205v1270h-244q-45 0 -45 -45v-92h-188z" />
    <glyph glyph-name="uni04A1" unicode="&#x4a1;" horiz-adv-x="1306" 
d="M37 754v170q0 66 29.5 89t101.5 23h297q71 0 101 -25.5t30 -92.5v-289h80q74 0 106 47l246 360h227l-286 -411q-20 -29 -39.5 -48.5t-29.5 -24.5l-9 -5v-4q5 -2 12.5 -6t28.5 -24t37 -48l153 -254q13 -25 31.5 -33t58.5 -8h60v-170h-144q-72 0 -105 18t-67 78l-184 322
q-16 25 -38.5 33t-59.5 8h-78v-459h-199v836q0 41 -37 41h-124q-37 0 -37 -41v-82h-162z" />
    <glyph glyph-name="uni04A2" unicode="&#x4a2;" horiz-adv-x="1599" 
d="M70 1270v176h206q69 0 100.5 -31t31.5 -100v-506h735v506q0 69 31.5 100t101.5 31h205v-176h-88q-45 0 -45 -45v-1049h71q69 0 99 -29.5t30 -99.5v-334h-184v242q0 45 -43 45h-178v635h-735v-635h-205v1225q0 45 -45 45h-88z" />
    <glyph glyph-name="uni04A3" unicode="&#x4a3;" horiz-adv-x="1296" 
d="M45 866v170h197q69 0 100 -31t31 -100v-291h524v422h199v-870h49q66 0 94.5 -31t28.5 -98v-283h-183v201q0 45 -36 45h-152v449h-524v-449h-199v821q0 45 -45 45h-84z" />
    <glyph glyph-name="uni04A4" unicode="&#x4a4;" horiz-adv-x="1927" 
d="M70 1270v176h206q69 0 100.5 -31t31.5 -100v-506h688v461h-133v176h813q69 0 98 -28.5t29 -98.5v-186h-189v92q0 45 -45 45h-369v-1270h-204v635h-688v-635h-205v1225q0 45 -45 45h-88z" />
    <glyph glyph-name="uni04A5" unicode="&#x4a5;" horiz-adv-x="1550" 
d="M45 866v170h197q69 0 100 -31t31 -100v-313h475v285h-127v159h661q72 0 101.5 -23t29.5 -89v-164h-163v76q0 41 -39 41h-264v-877h-199v424h-475v-424h-199v821q0 45 -45 45h-84z" />
    <glyph glyph-name="uni04A6" unicode="&#x4a6;" horiz-adv-x="2033" 
d="M68 1270v176h1011q69 0 100 -31t31 -100v-492q48 23 128 41.5t151 18.5q111 0 198.5 -32t155.5 -101t105 -187.5t37 -281.5q0 -332 -137.5 -489t-387.5 -157v166q314 0 314 480q0 229 -78 331.5t-246 102.5q-46 0 -99.5 -12t-73 -19t-67.5 -25v-659h-204v1225
q0 45 -45 45h-553v-1270h-205v1270h-135z" />
    <glyph glyph-name="uni04A7" unicode="&#x4a7;" horiz-adv-x="1665" 
d="M55 866v170h1045v-170h-115v-303q108 53 225 53q89 0 160.5 -25.5t118 -68.5t77.5 -104t44.5 -128.5t13.5 -144.5q0 -192 -84 -334t-223 -235l-98 141q213 138 213 428q0 48 -7.5 89.5t-26 81t-47 67t-74.5 44.5t-106 17q-96 0 -186 -49v-395h-199v866h-415v-866h-199
v866h-117z" />
    <glyph glyph-name="uni04A8" unicode="&#x4a8;" horiz-adv-x="1857" 
d="M72 745q0 125 32.5 235t84 189.5t120.5 143t138.5 101.5t140.5 59l69 -185q-71 -24 -136 -68.5t-121.5 -111t-90 -162t-33.5 -207.5q0 -115 34.5 -218t99.5 -183.5t168.5 -128t232.5 -47.5q113 0 223 35q-149 112 -234 276.5t-85 364.5q0 143 44.5 260t119.5 192
t170 115.5t198 40.5q228 0 374 -159.5t146 -434.5q0 -185 -94 -356.5t-254 -298.5q104 -29 236 -29h94v-168h-98q-223 0 -412 80q-205 -105 -430 -105q-214 0 -381 94.5t-261.5 270t-94.5 405.5zM924 840q0 -180 77 -324.5t218 -232.5q154 98 247 248.5t93 318.5
q0 202 -89 307t-225 105q-57 0 -112.5 -25.5t-103 -74.5t-76.5 -132.5t-29 -189.5z" />
    <glyph glyph-name="uni04A9" unicode="&#x4a9;" horiz-adv-x="1566" 
d="M68 535q0 108 34.5 200t91.5 155.5t119.5 105.5t130.5 65l68 -162q-104 -40 -180 -136.5t-76 -232.5q0 -78 24.5 -146.5t72.5 -124t129 -88t186 -32.5q85 0 180 25q-116 82 -182 197.5t-66 259.5q0 186 126 313t321 127q193 0 309.5 -117t116.5 -299q0 -130 -68.5 -253.5
t-187.5 -219.5q69 -14 157 -14h111v-158h-103q-180 0 -342 61q-180 -86 -372 -86q-142 0 -257 43.5t-189.5 119.5t-114 177.5t-39.5 219.5zM791 625q0 -124 63.5 -223.5t173.5 -161.5q115 68 184.5 170t69.5 225q0 124 -65 195t-175 71q-109 0 -180 -78t-71 -198z" />
    <glyph glyph-name="uni04AA" unicode="&#x4aa;" horiz-adv-x="1429" 
d="M72 735q0 154 55.5 290.5t151.5 234t230.5 154t287.5 56.5q62 0 131.5 -10t143.5 -33.5t132.5 -58t96.5 -89.5t38 -122v-141h-188v82q0 57 -58.5 100t-136.5 62.5t-155 19.5q-221 0 -368.5 -152t-147.5 -393q0 -155 68.5 -285.5t188.5 -206t265 -75.5q59 0 115.5 11
t100.5 28t84 38t68 42.5t48.5 38.5t30.5 28l10 11l110 -148q-7 -8 -21 -22.5t-61.5 -51.5t-100.5 -67t-136.5 -58.5t-171.5 -37.5v-267h-185v271q-280 37 -453 246.5t-173 504.5z" />
    <glyph glyph-name="uni04AB" unicode="&#x4ab;" horiz-adv-x="1089" 
d="M68 518q0 152 69 275.5t197 195.5t291 72q53 0 112 -11.5t120 -35.5t100.5 -71t39.5 -109v-107h-180v57q0 50 -62.5 78.5t-129.5 28.5q-154 0 -255.5 -104t-101.5 -267q0 -170 106.5 -269t260.5 -99q55 0 108 14.5t90 35.5t66 42.5t43 35.5l14 15l84 -141
q-5 -6 -14.5 -16t-43 -37t-71 -49t-97.5 -43t-124 -29v-226h-178v232q-200 32 -322 178.5t-122 353.5z" />
    <glyph glyph-name="uni04AC" unicode="&#x4ac;" horiz-adv-x="1302" 
d="M27 1133v190q0 69 27 96t96 27h995q69 0 96 -27t27 -96v-190h-183v92q0 45 -45 45h-290v-1094h71q69 0 98 -29.5t29 -99.5v-334h-182v242q0 42 -37 45h-184v1270h-289q-45 0 -45 -45v-92h-184z" />
    <glyph glyph-name="uni04AD" unicode="&#x4ad;" horiz-adv-x="1097" 
d="M37 752v157q0 68 30.5 97.5t100.5 29.5h754q70 0 100.5 -29.5t30.5 -97.5v-157h-164v69q0 45 -45 45h-201v-700h53q66 0 94.5 -31t28.5 -98v-283h-182v201q0 45 -37 45h-154v866h-200q-45 0 -45 -45v-69h-164z" />
    <glyph glyph-name="uni04AE" unicode="&#x4ae;" horiz-adv-x="1241" 
d="M23 1270v176h94q76 0 114.5 -20.5t79.5 -90.5l219 -364q21 -36 43 -76.5t33 -62.5l12 -23h5q41 82 88 162l217 364q41 69 80 90t114 21h97v-176h-41q-34 0 -52.5 -10t-38.5 -41l-364 -588v-631h-205v631l-366 588q-18 31 -36.5 41t-52.5 10h-40z" />
    <glyph glyph-name="uni04AF" unicode="&#x4af;" horiz-adv-x="1091" 
d="M27 866v170h102q67 0 100 -22t58 -82l217 -549l41 -127h4q23 72 43 127l215 549q25 61 57.5 82.5t100.5 21.5h102v-170h-20q-25 0 -40.5 -9t-25.5 -32l-336 -778v-457h-196v457l-338 778q-10 23 -24.5 32t-39.5 9h-20z" />
    <glyph glyph-name="uni04B0" unicode="&#x4b0;" horiz-adv-x="1239" 
d="M23 1270v176h94q77 0 115.5 -21t78.5 -90l219 -362l88 -164h5q41 82 88 164l217 362q43 70 81 90.5t113 20.5h97v-176h-41q-34 0 -53.5 -10t-37.5 -41l-364 -588v-4h244v-150h-244v-477h-205v477h-248v150h248v4l-364 588q-19 31 -38.5 41t-52.5 10h-40z" />
    <glyph glyph-name="uni04B1" unicode="&#x4b1;" horiz-adv-x="1093" 
d="M27 866v170h102q67 0 100 -22t58 -82l217 -549l41 -127h4q23 72 43 127l215 549q25 61 57.5 82.5t100.5 21.5h102v-170h-20q-25 0 -40.5 -9t-25.5 -32l-295 -680h199v-145h-240v-410h-196v410h-238v145h195l-295 680q-10 23 -24.5 32t-39.5 9h-20z" />
    <glyph glyph-name="uni04B2" unicode="&#x4b2;" horiz-adv-x="1284" 
d="M25 0l454 745l-291 474q-20 33 -40 42t-56 9h-51v176h119q77 0 116 -21.5t78 -89.5l162 -274l92 -170h4q41 90 88 170l164 274q39 68 78 89.5t115 21.5h121v-176h-54q-35 0 -54.5 -9t-39.5 -42l-293 -474l348 -569h76q69 0 98 -29.5t29 -99.5v-334h-182v242q0 42 -37 45
h-106l-265 440l-90 164h-4q-43 -86 -88 -166l-262 -438h-229z" />
    <glyph glyph-name="uni04B3" unicode="&#x4b3;" horiz-adv-x="1079" 
d="M41 0l350 532l-198 295q-16 24 -35 31.5t-52 7.5h-59v170h127q73 0 107 -19.5t75 -84.5l125 -201l33 -65h4q19 38 35 65l125 201q41 65 75 84.5t107 19.5h127v-170h-59q-32 0 -50.5 -7.5t-35.5 -29.5l-199 -297l240 -366h51q66 0 94.5 -31t28.5 -98v-283h-185v201
q0 42 -28 45h-76l-217 338l-33 55h-4q-15 -30 -31 -55l-217 -338h-225z" />
    <glyph glyph-name="uni04B4" unicode="&#x4b4;" horiz-adv-x="1882" 
d="M29 1133v190q0 69 27 96t96 27h913q70 0 97.5 -27t27.5 -96v-190h-176v92q0 45 -45 45h-254v-1049q0 -45 45 -45h690v1270h205v-1270h49q69 0 98 -29.5t29 -99.5v-334h-182v242q0 45 -43 45h-963q-70 0 -101.5 31t-31.5 100v1139h-254q-45 0 -45 -45v-92h-182z" />
    <glyph glyph-name="uni04B5" unicode="&#x4b5;" horiz-adv-x="1527" 
d="M35 760v162q0 67 29.5 90.5t101.5 23.5h651q72 0 101.5 -23.5t29.5 -90.5v-162h-139v74q0 40 -37 40h-178v-663q0 -45 43 -45h502v870h198v-870h31q67 0 96 -31t29 -98v-283h-182v201q0 45 -43 45h-742q-69 0 -100 30t-31 99v745h-182q-39 0 -39 -40v-74h-139z" />
    <glyph glyph-name="uni04B6" unicode="&#x4b6;" horiz-adv-x="1409" 
d="M29 1270v176h207q69 0 100 -31t31 -100v-295q0 -141 68 -211t218 -70q90 0 173.5 30.5t134.5 68.5v608h204v-1270h72q71 0 100 -29t29 -100v-334h-182v242q0 42 -37 45h-186v586l4 67h-4q-180 -100 -355 -100q-223 0 -333.5 109.5t-110.5 312.5v250q0 45 -45 45h-88z" />
    <glyph glyph-name="uni04B7" unicode="&#x4b7;" horiz-adv-x="1177" 
d="M35 866v170h186q71 0 100 -33.5t29 -97.5v-178q0 -42 8 -74t28.5 -61t61 -44.5t99.5 -15.5q124 0 231 74v430h199v-870h49q66 0 94.5 -31t28.5 -98v-283h-182v201q0 42 -31 45h-158v375l2 65h-2q-123 -80 -291 -80q-161 0 -246 80.5t-85 231.5v149q0 24 -11 34.5
t-36 10.5h-74z" />
    <glyph glyph-name="uni04B8" unicode="&#x4b8;" horiz-adv-x="1368" 
d="M27 1270v176h206q69 0 100.5 -31t31.5 -100v-289q0 -133 56 -203.5t177 -79.5v283h152v-278q147 22 247 92v606h205v-1446h-205v588l4 67h-4q-109 -60 -247 -84v-227h-152v215h-6q-213 0 -322.5 108t-109.5 308v250q0 45 -45 45h-88z" />
    <glyph glyph-name="uni04B9" unicode="&#x4b9;" horiz-adv-x="1165" 
d="M33 866v170h188q70 0 99.5 -34t29.5 -99v-162q0 -41 7 -73t24.5 -61t52 -47.5t84.5 -24.5v249h144v-243q97 18 172 65v430h198v-1036h-198v383l4 63h-4q-79 -44 -172 -63v-180h-144v162h-14q-166 0 -258 85.5t-92 237.5v133q0 25 -10 35t-35 10h-76z" />
    <glyph glyph-name="uni04BA" unicode="&#x4ba;" horiz-adv-x="1343" 
d="M70 1270v176h206q69 0 100.5 -31t31.5 -100v-404l-5 -67h5q169 94 368 94q208 0 311 -109t103 -313v-295q0 -45 45 -45h88v-176h-207q-69 0 -100 31t-31 100v342q0 141 -61 211t-195 70q-93 0 -181.5 -30t-139.5 -67v-657h-205v1225q0 45 -45 45h-88z" />
    <glyph glyph-name="uni04BB" unicode="&#x4bb;" horiz-adv-x="1239" 
d="M8 1276v170h195q69 0 101 -30.5t32 -96.5v-404l-4 -86h4q40 89 141 160.5t242 71.5q182 0 269 -98.5t87 -298.5v-449q0 -45 45 -45h84v-170h-196q-69 0 -100 31t-31 100v487q0 60 -7.5 103t-27.5 81t-60 57.5t-100 19.5q-117 0 -207 -71t-123 -185q-16 -55 -16 -138v-485
h-199v1231q0 45 -45 45h-84z" />
    <glyph glyph-name="uni04BC" unicode="&#x4bc;" horiz-adv-x="1738" 
d="M49 1053q0 108 14 170l17 80h186l-18 -82q-15 -71 -15 -150q0 -91 38.5 -149t123.5 -58h8q41 272 221.5 439t436.5 167q275 0 435.5 -180.5t160.5 -490.5l-6 -97h-1045q2 -126 43 -229t109.5 -170.5t158.5 -104t191 -36.5q83 0 163 21.5t138 54.5t89.5 55t49.5 39
l99 -156q-13 -13 -30.5 -28t-71 -49t-113 -59t-153 -45t-194.5 -20q-145 0 -272 54t-218.5 149t-145.5 231.5t-56 295.5h-6q-158 0 -248 90t-90 258zM610 864h842q0 86 -24 161t-70.5 135t-123 95t-173.5 35q-94 0 -175.5 -35.5t-137.5 -95t-91.5 -135.5t-46.5 -160z" />
    <glyph glyph-name="uni04BD" unicode="&#x4bd;" horiz-adv-x="1345" 
d="M43 799q0 69 23 151h163q-24 -74 -24 -141q0 -87 29.5 -128.5t89.5 -43.5q35 194 173.5 309t333.5 115q141 0 244 -66.5t153 -175.5t50 -244l-4 -83h-758q7 -162 109.5 -253.5t248.5 -91.5q50 0 99.5 12.5t84.5 31t62.5 36.5t41.5 31l14 12l86 -143q-6 -6 -18 -16.5
t-52 -36.5t-83 -46t-110.5 -36.5t-136.5 -16.5q-235 0 -388 147.5t-161 371.5q-270 0 -270 305zM524 635h553q-4 126 -74.5 197t-171.5 71q-119 0 -202.5 -70t-104.5 -198z" />
    <glyph glyph-name="uni04BE" unicode="&#x4be;" horiz-adv-x="1738" 
d="M49 1053q0 108 14 170l17 80h186l-18 -82q-15 -71 -15 -150q0 -91 38.5 -149t123.5 -58h8q41 272 221.5 439t436.5 167q275 0 435.5 -180.5t160.5 -490.5l-6 -97h-1045q2 -126 43 -229t109.5 -170.5t158.5 -104t191 -36.5q83 0 163 21.5t138 54.5t89.5 55t49.5 39
l99 -156q-11 -11 -27.5 -25t-63 -44.5t-99 -54.5t-134.5 -46.5t-170 -28.5v-264h-182v273q-166 25 -296 121t-204.5 251.5t-77.5 346.5h-6q-158 0 -248 90t-90 258zM610 864h842q0 86 -24 161t-70.5 135t-123 95t-173.5 35q-94 0 -175.5 -35.5t-137.5 -95t-91.5 -135.5
t-46.5 -160z" />
    <glyph glyph-name="uni04BF" unicode="&#x4bf;" horiz-adv-x="1349" 
d="M45 799q0 69 23 151h163q-24 -74 -24 -141q0 -87 29.5 -128.5t89.5 -43.5q35 194 174 309t334 115q106 0 192 -38.5t141 -105t84 -154t29 -188.5l-4 -83h-758q7 -162 109.5 -253.5t249.5 -91.5q50 0 99.5 12.5t84 31t62.5 36.5t41 31l14 12l86 -143q-5 -5 -15.5 -14
t-45 -32.5t-72 -42.5t-95.5 -37t-118 -24v-223h-179v234q-185 37 -300.5 176t-123.5 330q-270 0 -270 305zM526 635h553q-4 126 -74 197t-171 71q-119 0 -203 -70.5t-105 -197.5z" />
    <glyph glyph-name="uni04C0" unicode="&#x4c0;" horiz-adv-x="651" 
d="M86 0v176h141v1094h-141v176h477v-176h-139v-1094h139v-176h-477z" />
    <glyph glyph-name="uni04C1" unicode="&#x4c1;" horiz-adv-x="1810" 
d="M14 0l385 655q19 32 42.5 55.5t36.5 31.5l14 8v4l-12 6t-29 27t-39 57l-209 379q-16 30 -38.5 38.5t-64.5 8.5h-41v176h103q85 0 122.5 -20.5t73.5 -88.5l244 -446q20 -35 48 -46t77 -11h80v612h197v-612h75q48 0 78.5 11t50.5 46l244 446q37 69 73.5 89t123.5 20h102
v-176h-41q-42 0 -64.5 -8.5t-39.5 -38.5l-207 -379q-18 -34 -38 -56.5t-31 -27.5l-11 -6v-4q5 -3 14.5 -8.5t33.5 -30t42 -56.5l387 -655h-225l-352 608q-22 36 -48.5 48t-68.5 12h-98v-668h-197v668h-98q-42 0 -68.5 -12t-48.5 -48l-352 -608h-226zM606 1776v30h160v-28
q0 -64 42.5 -100t100.5 -36q59 0 102.5 36.5t43.5 101.5v26h157v-30q0 -121 -88.5 -192t-214.5 -71q-125 0 -214 71t-89 192z" />
    <glyph glyph-name="uni04C2" unicode="&#x4c2;" horiz-adv-x="1542" 
d="M33 0l248 426q23 38 52.5 63t47.5 31l18 6v4q-5 2 -14.5 6t-31 25t-36.5 51l-106 213q-12 25 -31 33t-61 8h-53v170h122q75 0 109.5 -17.5t64.5 -78.5l134 -268q33 -62 118 -62h62v426h192v-426h60q86 0 119 62l133 268q30 61 64.5 78.5t109.5 17.5h123v-170h-54
q-40 0 -59.5 -8t-32.5 -33l-106 -213q-14 -30 -34.5 -50.5t-34.5 -25.5l-13 -6v-4q3 -1 8 -2t19.5 -8.5t28 -17t31.5 -29t32 -43.5l249 -426h-231l-205 360q-29 47 -64 64.5t-81 17.5h-62v-442h-192v442h-62q-47 0 -82 -17t-65 -65l-203 -360h-231zM471 1417v31h160v-29
q0 -64 42.5 -99.5t100.5 -35.5q59 0 102.5 36t43.5 101v27h157v-31q0 -121 -88.5 -191.5t-214.5 -70.5q-125 0 -214 70.5t-89 191.5z" />
    <glyph glyph-name="uni04C3" unicode="&#x4c3;" horiz-adv-x="1296" 
d="M70 1270v176h206q69 0 100.5 -31t31.5 -100v-477h137q90 0 119 49l329 559h230l-324 -545q-9 -16 -18 -29.5t-17.5 -23.5t-15 -17.5t-13 -13.5t-10 -8.5t-7.5 -6.5l-5 -3v-2q103 -32 179.5 -88.5t117 -115t65 -130t31 -122.5t6.5 -103q0 -279 -137.5 -441t-367.5 -162
v170q57 0 107 22.5t93 70.5t68.5 135.5t25.5 206.5q0 206 -118.5 315t-323.5 109h-151v-664h-205v1225q0 45 -45 45h-88z" />
    <glyph glyph-name="uni04C4" unicode="&#x4c4;" horiz-adv-x="1087" 
d="M45 866v170h197q67 0 99 -29t32 -89v-302h67q76 0 119 62l242 358h225l-270 -391q-35 -50 -68 -72v-4q95 -26 163 -78t102 -118.5t48.5 -130t14.5 -131.5q0 -100 -27.5 -188.5t-74 -153.5t-99.5 -112t-113 -81l-94 143q92 48 153.5 144.5t61.5 247.5q0 158 -91 245.5
t-257 87.5h-102v-444h-199v821q0 45 -45 45h-84z" />
    <glyph glyph-name="uni04C5" unicode="&#x4c5;" horiz-adv-x="1456" 
d="M20 -10v186q178 24 254 251.5t76 682.5v160h-135v176h850q69 0 100 -31t31 -100v-1094q0 -45 45 -45h178v-117l-149 -346h-148l82 287h-82q-69 0 -100 31t-31 100v1094q0 45 -45 45h-401v-162q0 -214 -16 -380.5t-54 -304.5t-98 -229.5t-149.5 -144t-207.5 -59.5z" />
    <glyph glyph-name="uni04C6" unicode="&#x4c6;" horiz-adv-x="1167" 
d="M27 -6v176q53 1 96 41.5t70 104t45 146.5t25 163t7 161v80h-129v170h670q69 0 100 -31t31 -100v-690q0 -45 45 -45h156v-111l-129 -305h-142l68 246h-63q-71 0 -102.5 31t-31.5 100v690q0 45 -45 45h-237v-82q0 -64 -4 -127t-16 -144t-31 -151t-52.5 -139.5t-77.5 -119
t-109 -79.5t-144 -30z" />
    <glyph glyph-name="uni04C7" unicode="&#x4c7;" horiz-adv-x="1562" 
d="M70 1270v176h206q69 0 100.5 -31t31.5 -100v-506h749v506q0 69 31 100t100 31h207v-176h-88q-45 0 -45 -45v-1121q0 -119 -27.5 -207.5t-68.5 -137.5t-101 -79t-112.5 -38.5t-114.5 -8.5v172q219 0 219 297v533h-749v-635h-205v1225q0 45 -45 45h-88z" />
    <glyph glyph-name="uni04C8" unicode="&#x4c8;" horiz-adv-x="1271" 
d="M45 866v170h197q69 0 100 -31t31 -100v-291h524v291q0 69 32 100t101 31h197v-170h-84q-45 0 -45 -45v-723q0 -86 -16 -157.5t-42 -123.5t-67.5 -97.5t-84 -77.5t-100.5 -66l-102 145q51 28 86.5 57.5t65.5 73t44.5 104.5t14.5 140v348h-524v-444h-199v821q0 45 -45 45
h-84z" />
    <glyph glyph-name="uni04C9" unicode="&#x4c9;" horiz-adv-x="1611" 
d="M70 1270v176h206q69 0 100.5 -31t31.5 -100v-506h735v506q0 69 31.5 100t101.5 31h205v-176h-88q-45 0 -45 -45v-1049h225v-117l-148 -346h-149l88 287h-221v635h-735v-635h-205v1225q0 45 -45 45h-88z" />
    <glyph glyph-name="uni04CA" unicode="&#x4ca;" horiz-adv-x="1296" 
d="M45 866v170h197q69 0 100 -31t31 -100v-293h524v424h199v-821q0 -45 45 -45h119v-111l-130 -305h-139l68 246h-31q-69 0 -100 31t-31 100v315h-524v-446h-199v821q0 45 -45 45h-84z" />
    <glyph glyph-name="uni04CB" unicode="&#x4cb;" horiz-adv-x="1331" 
d="M29 1270v176h207q69 0 100 -31t31 -100v-295q0 -141 68 -211t218 -70q90 0 173.5 30.5t134.5 68.5v608h204v-1446h-221q-43 0 -43 -45v-242h-182v334q0 70 29 99.5t98 29.5h115v410l4 67h-4q-180 -100 -355 -100q-223 0 -333.5 109.5t-110.5 312.5v250q0 45 -45 45h-88z
" />
    <glyph glyph-name="uni04CC" unicode="&#x4cc;" horiz-adv-x="1107" 
d="M33 866v170h188q71 0 100 -33.5t29 -97.5v-162q0 -42 8 -74t28 -60.5t60.5 -44t100.5 -15.5q124 0 229 76v411h199v-1036h-162q-29 -3 -29 -45v-201h-182v264q0 67 28 97t95 30h51v248l4 64h-4q-55 -35 -132 -56.5t-159 -21.5q-161 0 -246 80t-85 231v131
q0 24 -10.5 34.5t-34.5 10.5h-76z" />
    <glyph glyph-name="uni04CD" unicode="&#x4cd;" horiz-adv-x="1826" 
d="M47 0v176h68q42 0 45 45l98 1225h211l340 -764q16 -36 34 -82t28 -74l10 -28h4q36 104 71 184l340 764h211l99 -1225q3 -45 45 -45h182v-117l-147 -346h-148l80 287h-80q-69 0 -98 30t-35 101l-57 764q-4 38 -5 91.5t-1 87.5l1 34h-4q-42 -135 -77 -213l-293 -635h-172
l-291 635q-16 34 -35.5 87.5t-30.5 90.5l-12 37h-4q2 -129 -4 -215l-60 -764q-5 -70 -34 -100.5t-97 -30.5h-182z" />
    <glyph glyph-name="uni04CE" unicode="&#x4ce;" horiz-adv-x="1552" 
d="M39 0v170h53q36 0 39 39l72 827h217l270 -594l53 -129h2q29 68 56 129l268 594h217l72 -827q3 -39 39 -39h155v-111l-129 -305h-141l68 246h-52q-61 0 -84 26.5t-28 86.5l-39 489l-4 184h-4q-25 -75 -62 -155l-241 -506h-189l-237 506q-15 34 -30 73t-22 62l-8 22h-4
q0 -123 -4 -186l-39 -489q-5 -60 -28.5 -86.5t-84.5 -26.5h-151z" />
    <glyph glyph-name="uni04CF" unicode="&#x4cf;" horiz-adv-x="651" 
d="M86 0v170h141v1106h-141v170h477v-170h-139v-1106h139v-170h-477z" />
    <glyph glyph-name="uni04D0" unicode="&#x4d0;" horiz-adv-x="1361" 
d="M25 0v176h28q29 0 44 9t24 36l452 1225h215l453 -1225q9 -27 24 -36t44 -9h28v-176h-112q-76 0 -110 24t-60 95l-109 297h-530l-109 -297q-26 -71 -60 -95t-110 -24h-112zM375 1776v30h160v-28q0 -64 42.5 -100t100.5 -36q59 0 102 36.5t43 101.5v26h158v-30
q0 -121 -88.5 -192t-214.5 -71q-125 0 -214 71t-89 192zM465 588h432l-158 440q-11 34 -25.5 84.5t-23.5 84.5l-8 34h-4q-30 -127 -55 -203z" />
    <glyph glyph-name="uni04D1" unicode="&#x4d1;" horiz-adv-x="1083" 
d="M57 283q0 72 26.5 129.5t66.5 94.5t100 64.5t113.5 41t121 21.5t109 9.5t90.5 1.5h45v14q0 132 -54 188t-175 56q-23 0 -48 -3t-54.5 -11t-48.5 -25t-19 -41v-59h-189v104q0 47 28.5 83.5t69 56.5t92.5 32.5t91.5 16.5t73.5 4q100 0 176 -20.5t124 -55.5t78 -87.5
t42 -111t12 -131.5v-440q0 -45 45 -45h84v-170h-189q-127 0 -127 119l2 61h-4q1 0 -4.5 -11.5t-18 -29.5t-30.5 -39.5t-45.5 -43.5t-60.5 -40t-78.5 -29.5t-95.5 -11.5q-143 0 -246 83t-103 225zM240 1417v31h159v-29q0 -64 42.5 -99.5t101.5 -35.5t102 36t43 101v27h158
v-31q0 -121 -88.5 -191.5t-214.5 -70.5q-125 0 -214 70.5t-89 191.5zM256 301q0 -68 52 -118t143 -50q82 0 147.5 51t98 125.5t32.5 153.5v39h-53q-420 0 -420 -201z" />
    <glyph glyph-name="uni04D2" unicode="&#x4d2;" horiz-adv-x="1361" 
d="M25 0v176h28q29 0 44 9t24 36l452 1225h215l453 -1225q9 -27 24 -36t44 -9h28v-176h-112q-76 0 -110 24t-60 95l-109 297h-530l-109 -297q-26 -71 -60 -95t-110 -24h-112zM436 1599v207h152v-207h-152zM465 588h432l-158 440q-11 34 -25.5 84.5t-23.5 84.5l-8 34h-4
q-30 -127 -55 -203zM774 1599v207h150v-207h-150z" />
    <glyph glyph-name="uni04D3" unicode="&#x4d3;" horiz-adv-x="1083" 
d="M57 283q0 72 26.5 129.5t66.5 94.5t100 64.5t113.5 41t121 21.5t109 9.5t90.5 1.5h45v14q0 132 -54 188t-175 56q-23 0 -48 -3t-54.5 -11t-48.5 -25t-19 -41v-59h-189v104q0 47 28.5 83.5t69 56.5t92.5 32.5t91.5 16.5t73.5 4q100 0 176 -20.5t124 -55.5t78 -87.5
t42 -111t12 -131.5v-440q0 -45 45 -45h84v-170h-189q-127 0 -127 119l2 61h-4q1 0 -4.5 -11.5t-18 -29.5t-30.5 -39.5t-45.5 -43.5t-60.5 -40t-78.5 -29.5t-95.5 -11.5q-143 0 -246 83t-103 225zM256 301q0 -68 52 -118t143 -50q82 0 147.5 51t98 125.5t32.5 153.5v39h-53
q-420 0 -420 -201zM281 1241v207h151v-207h-151zM618 1241v207h150v-207h-150z" />
    <glyph glyph-name="uni04D4" unicode="&#x4d4;" horiz-adv-x="1767" 
d="M20 0v176h23q29 0 44.5 9t25.5 36l485 1225h918q69 0 100 -31t31 -100v-182h-187v92q0 45 -45 45h-399v-453h495v-176h-495v-420q0 -25 12.5 -35t40.5 -10h401q46 0 46 45v92h188v-182q0 -69 -31 -100t-100 -31h-617q-80 0 -113.5 28t-33.5 103v510h-326l-194 -522
q-26 -71 -60 -95t-110 -24h-99zM551 817h258v453h-88z" />
    <glyph glyph-name="uni04D5" unicode="&#x4d5;" horiz-adv-x="1738" 
d="M59 289q0 68 23.5 123t59.5 91t91 63t106.5 41t117 22t112 10t101.5 2h59v23q0 132 -54.5 185.5t-174.5 53.5q-23 0 -48.5 -3t-55 -11t-48 -25t-18.5 -41v-59h-189v104q0 52 34 91.5t89.5 60.5t114.5 31t121 10q148 0 230.5 -46.5t121.5 -135.5h4q126 182 369 182
q137 0 239 -65t153.5 -173.5t51.5 -242.5l-4 -84h-745q9 -169 104.5 -259t241.5 -90q50 0 99.5 12.5t84.5 31t63 36.5t42 31l14 12l84 -143q-6 -6 -18 -16.5t-52 -36.5t-83 -46t-110.5 -36.5t-136.5 -16.5q-154 0 -267.5 68t-176.5 190h-4q-7 -20 -21.5 -46.5t-47 -65
t-74 -69.5t-107 -53t-141.5 -22q-150 0 -252.5 83.5t-102.5 228.5zM260 301q0 -69 52 -117.5t145 -48.5q81 0 145.5 51t96.5 126t32 155v29h-96q-375 0 -375 -195zM928 641h538q-6 123 -75 191.5t-168 68.5q-117 0 -194.5 -67.5t-100.5 -192.5z" />
    <glyph glyph-name="uni04D6" unicode="&#x4d6;" horiz-adv-x="1169" 
d="M68 1270v176h852q69 0 100 -31t31 -100v-182h-189v92q0 45 -45 45h-411v-453h507v-176h-507v-420q0 -45 45 -45h423q46 0 46 45v92h186v-182q0 -69 -31 -100t-100 -31h-641q-69 0 -101 31t-32 100v1139h-133zM315 1776v30h160v-28q0 -64 42.5 -100t100.5 -36
q59 0 102.5 36.5t43.5 101.5v26h158v-30q0 -121 -89 -192t-215 -71q-125 0 -214 71t-89 192z" />
    <glyph glyph-name="uni04D7" unicode="&#x4d7;" horiz-adv-x="1103" 
d="M68 518q0 121 40 223.5t109.5 172t165 108.5t205.5 39q107 0 193 -38.5t140.5 -105t83.5 -154t29 -188.5q0 -35 -6 -83h-756q9 -161 111 -253t248 -92q32 0 64 5t60.5 15t50.5 19t46 24t35 22.5t30 21.5l19 14l84 -145q-24 -20 -57.5 -41.5t-86 -47.5t-121 -42.5
t-137.5 -16.5q-160 0 -286 71.5t-195 195t-69 276.5zM272 1417v31h160v-29q0 -64 42.5 -99.5t100.5 -35.5q59 0 102.5 36t43.5 101v27h158v-31q0 -121 -89 -191.5t-215 -70.5q-125 0 -214 70.5t-89 191.5zM281 635h555q-4 129 -75 200.5t-177 71.5q-117 0 -199.5 -72.5
t-103.5 -199.5z" />
    <glyph glyph-name="uni04D8" unicode="&#x4d8;" horiz-adv-x="1421" 
d="M78 694l6 103h1051q-11 218 -143.5 352.5t-338.5 134.5q-85 0 -166.5 -19.5t-138.5 -49t-90 -51t-49 -36.5l-100 152q15 13 31 26t72 46t115 56t153.5 42.5t193.5 19.5q197 0 351.5 -97t238.5 -265.5t84 -378.5q0 -216 -80 -386.5t-230.5 -269t-347.5 -98.5
q-285 0 -448.5 186.5t-163.5 532.5zM283 635q0 -229 103 -353t316 -124q190 0 309 130.5t122 346.5h-850z" />
    <glyph glyph-name="afii10846" unicode="&#x4d9;" horiz-adv-x="1107" 
d="M70 481l6 92h758q-7 146 -103 235t-231 89q-84 0 -166.5 -29.5t-123.5 -58.5l-40 -29l-78 142q1 1 14.5 10t24.5 15.5t32 19t41.5 22t48 21t57 20t63 16t72 11.5t77.5 4q153 0 270.5 -70.5t180.5 -193t63 -277.5q0 -250 -142 -397.5t-364 -147.5q-147 0 -252 66
t-156.5 179t-51.5 261zM276 430q4 -153 75.5 -225t183.5 -72q118 0 201.5 76.5t90.5 220.5h-551z" />
    <glyph glyph-name="uni04DA" unicode="&#x4da;" horiz-adv-x="1421" 
d="M78 694l6 103h1051q-11 218 -143.5 352.5t-338.5 134.5q-85 0 -166.5 -19.5t-138.5 -49t-90 -51t-49 -36.5l-100 152q15 13 31 26t72 46t115 56t153.5 42.5t193.5 19.5q197 0 351.5 -97t238.5 -265.5t84 -378.5q0 -216 -80 -386.5t-230.5 -269t-347.5 -98.5
q-285 0 -448.5 186.5t-163.5 532.5zM283 635q0 -229 103 -353t316 -124q190 0 309 130.5t122 346.5h-850zM457 1597v207h151v-207h-151zM795 1597v207h151v-207h-151z" />
    <glyph glyph-name="uni04DB" unicode="&#x4db;" horiz-adv-x="1105" 
d="M70 481l6 92h758q-7 146 -103 235t-231 89q-84 0 -166.5 -29.5t-123.5 -58.5l-40 -29l-78 142q1 1 14.5 10t24.5 15.5t32 19t41.5 22t48 21t57 20t63 16t72 11.5t77.5 4q153 0 270.5 -70.5t180.5 -193t63 -277.5q0 -250 -142 -397.5t-364 -147.5q-147 0 -252 66
t-156.5 179t-51.5 261zM276 430q4 -153 75.5 -225t183.5 -72q118 0 201.5 76.5t90.5 220.5h-551zM281 1241v207h151v-207h-151zM618 1241v207h150v-207h-150z" />
    <glyph glyph-name="uni04DC" unicode="&#x4dc;" horiz-adv-x="1810" 
d="M14 0l385 655q19 32 42.5 55.5t36.5 31.5l14 8v4l-12 6t-29 27t-39 57l-209 379q-16 30 -38.5 38.5t-64.5 8.5h-41v176h103q85 0 122.5 -20.5t73.5 -88.5l244 -446q20 -35 48 -46t77 -11h80v612h197v-612h75q48 0 78.5 11t50.5 46l244 446q37 69 73.5 89t123.5 20h102
v-176h-41q-42 0 -64.5 -8.5t-39.5 -38.5l-207 -379q-18 -34 -38 -56.5t-31 -27.5l-11 -6v-4q5 -3 14.5 -8.5t33.5 -30t42 -56.5l387 -655h-225l-352 608q-22 36 -48.5 48t-68.5 12h-98v-668h-197v668h-98q-42 0 -68.5 -12t-48.5 -48l-352 -608h-226zM668 1599v207h151v-207
h-151zM1006 1599v207h149v-207h-149z" />
    <glyph glyph-name="uni04DD" unicode="&#x4dd;" horiz-adv-x="1542" 
d="M33 0l248 426q23 38 52.5 63t47.5 31l18 6v4q-5 2 -14.5 6t-31 25t-36.5 51l-106 213q-12 25 -31 33t-61 8h-53v170h122q75 0 109.5 -17.5t64.5 -78.5l134 -268q33 -62 118 -62h62v426h192v-426h60q86 0 119 62l133 268q30 61 64.5 78.5t109.5 17.5h123v-170h-54
q-40 0 -59.5 -8t-32.5 -33l-106 -213q-14 -30 -34.5 -50.5t-34.5 -25.5l-13 -6v-4q3 -1 8 -2t19.5 -8.5t28 -17t31.5 -29t32 -43.5l249 -426h-231l-205 360q-29 47 -64 64.5t-81 17.5h-62v-442h-192v442h-62q-47 0 -82 -17t-65 -65l-203 -360h-231zM528 1241v207h152v-207
h-152zM866 1241v207h150v-207h-150z" />
    <glyph glyph-name="uni04DE" unicode="&#x4de;" horiz-adv-x="1083" 
d="M41 168l121 143q53 -59 144.5 -106t189.5 -47q127 0 213 69.5t86 188.5q0 112 -77 176.5t-192 64.5h-172v168h148q105 0 177.5 66.5t72.5 171.5q0 101 -63.5 163t-184.5 62q-95 0 -161.5 -40t-66.5 -97v-59h-188v112q0 69 41.5 123t108 83.5t138.5 44.5t144 15
q210 0 324 -103t114 -273q0 -222 -208 -328v-4q120 -34 188 -128.5t68 -225.5q0 -191 -140.5 -312t-365.5 -121q-148 0 -266 55.5t-193 137.5zM291 1599v207h151v-207h-151zM629 1599v207h149v-207h-149z" />
    <glyph glyph-name="uni04DF" unicode="&#x4df;" horiz-adv-x="903" 
d="M47 127l94 131q24 -24 52.5 -46t92.5 -48.5t130 -26.5q93 0 154 44t61 128q0 76 -53.5 116t-157.5 40h-131v137h104q96 0 149.5 40.5t53.5 117.5q0 75 -49.5 113t-130.5 38q-40 0 -76.5 -9.5t-64 -33t-27.5 -57.5v-47h-166v96q0 66 51.5 113t128.5 67.5t170 20.5
q167 0 266 -73t99 -208q0 -91 -44 -150t-110 -83v-4q82 -22 134 -84.5t52 -161.5q0 -102 -56 -176.5t-145.5 -110t-199.5 -35.5q-218 0 -381 152zM199 1241v207h151v-207h-151zM537 1241v207h149v-207h-149z" />
    <glyph glyph-name="uni04E0" unicode="&#x4e0;" horiz-adv-x="1034" 
d="M49 111l84 153q59 -50 145.5 -81t165.5 -31q144 0 231 72t87 190q0 101 -53.5 156.5t-173.5 70.5q-52 8 -297 8v133l376 416q19 20 40.5 39.5t33.5 28.5l12 10l-2 4q-59 -4 -129 -4h-270q-45 0 -45 -45v-70h-174v156q0 69 31 99t100 30h709v-162l-392 -424l-57 -51v-4
q113 -3 172 -14q78 -14 136.5 -44.5t92.5 -67t54.5 -83.5t27.5 -87t7 -85q0 -136 -67 -238t-181 -154t-258 -52q-109 0 -215.5 35.5t-190.5 95.5z" />
    <glyph glyph-name="uni04E1" unicode="&#x4e1;" horiz-adv-x="966" 
d="M10 -299l84 154q59 -50 146 -81.5t166 -31.5q144 0 230.5 72t86.5 190q0 101 -53.5 156.5t-173.5 70.5q-58 9 -297 9v133l376 415q19 20 41 39.5t34 28.5l12 10l-3 4q-59 -4 -129 -4h-270q-45 0 -45 -45v-69h-174v155q0 69 31 99t100 30h709v-162l-392 -423l-57 -52v-4
q113 -3 172 -14q78 -14 136.5 -44.5t92.5 -67t54.5 -83.5t27.5 -87t7 -85q0 -136 -67 -238t-181 -154t-258 -52q-109 0 -215.5 35.5t-190.5 95.5z" />
    <glyph glyph-name="uni04E2" unicode="&#x4e2;" horiz-adv-x="1562" 
d="M70 1270v176h206q69 0 100.5 -31t31.5 -100v-793q0 -36 -3 -88t-7 -86l-3 -33h4q78 131 129 209l631 922h201v-1225q0 -45 45 -45h88v-176h-205q-70 0 -101.5 31t-31.5 100v795q0 36 3 88.5t6 87.5l3 35h-4q-72 -133 -123 -211l-634 -926h-203v1225q0 45 -45 45h-88z
M535 1608v139h520v-139h-520z" />
    <glyph glyph-name="uni04E3" unicode="&#x4e3;" horiz-adv-x="1267" 
d="M47 866v170h182q69 0 100 -30t31 -99v-493q0 -104 -8 -144h4q21 42 97 144l446 622h197v-821q0 -45 43 -45h82v-170h-183q-69 0 -100 31t-31 100v492q0 81 8 145h-4q-18 -40 -96 -145l-446 -623h-197v821q0 45 -43 45h-82zM379 1249v140h520v-140h-520z" />
    <glyph glyph-name="uni04E4" unicode="&#x4e4;" horiz-adv-x="1562" 
d="M70 1270v176h206q69 0 100.5 -31t31.5 -100v-793q0 -36 -3 -88t-7 -86l-3 -33h4q78 131 129 209l631 922h201v-1225q0 -45 45 -45h88v-176h-205q-70 0 -101.5 31t-31.5 100v795q0 36 3 88.5t6 87.5l3 35h-4q-72 -133 -123 -211l-634 -926h-203v1225q0 45 -45 45h-88z
M539 1599v207h151v-207h-151zM877 1599v207h149v-207h-149z" />
    <glyph glyph-name="uni04E5" unicode="&#x4e5;" horiz-adv-x="1267" 
d="M47 866v170h182q69 0 100 -30t31 -99v-493q0 -104 -8 -144h4q21 42 97 144l446 622h197v-821q0 -45 43 -45h82v-170h-183q-69 0 -100 31t-31 100v492q0 81 8 145h-4q-18 -40 -96 -145l-446 -623h-197v821q0 45 -43 45h-82zM397 1241v207h152v-207h-152zM735 1241v207h150
v-207h-150z" />
    <glyph glyph-name="uni04E6" unicode="&#x4e6;" horiz-adv-x="1624" 
d="M70 733q0 205 97.5 374t267.5 266t376 97t376.5 -97t268.5 -266t98 -374q0 -210 -98 -384t-268.5 -274t-376.5 -100t-376 100t-267.5 274t-97.5 384zM283 733q0 -157 70.5 -287t191.5 -204t266 -74t266.5 74t192.5 204t71 287q0 114 -42 215.5t-113 174t-169 115
t-206 42.5t-205.5 -42.5t-168.5 -115t-112.5 -174t-41.5 -215.5zM565 1599v207h152v-207h-152zM903 1599v207h150v-207h-150z" />
    <glyph glyph-name="uni04E7" unicode="&#x4e7;" horiz-adv-x="1247" 
d="M68 520q0 153 74.5 277.5t202 194t280.5 69.5q115 0 217.5 -41t178 -112t119.5 -172t44 -216q0 -154 -75 -279.5t-203 -195.5t-281 -70t-280.5 70t-202 195.5t-74.5 279.5zM268 520q0 -160 104.5 -266.5t252.5 -106.5q150 0 253 106t103 267q0 159 -103 264t-253 105
q-149 0 -253 -105t-104 -264zM381 1239v207h151v-207h-151zM719 1239v207h149v-207h-149z" />
    <glyph glyph-name="uni04E8" unicode="&#x4e8;" horiz-adv-x="1624" 
d="M70 733q0 154 56.5 290.5t154.5 234.5t236 155t294 57q157 0 295.5 -57t236.5 -155t154.5 -234.5t56.5 -290.5q0 -158 -56.5 -298t-154.5 -241t-236.5 -160t-295.5 -59q-156 0 -294 59t-236 160t-154.5 241t-56.5 298zM281 811h1060q-26 207 -175 342t-355 135
q-208 0 -356 -135t-174 -342zM283 649q26 -213 174 -351t354 -138t354 138t176 351h-1058z" />
    <glyph glyph-name="uni04E9" unicode="&#x4e9;" horiz-adv-x="1247" 
d="M66 520q0 153 75 278t202.5 194t279.5 69q154 0 282 -69.5t202.5 -194t74.5 -277.5q0 -154 -74.5 -279.5t-202 -195.5t-280.5 -70t-281 70t-203 195.5t-75 279.5zM260 461q20 -145 123 -235.5t242 -90.5q138 0 241 90.5t123 235.5h-729zM260 588h727q-22 138 -124 225.5
t-238 87.5q-137 0 -239.5 -87t-125.5 -226z" />
    <glyph glyph-name="uni04EA" unicode="&#x4ea;" horiz-adv-x="1624" 
d="M70 733q0 154 56.5 290.5t154.5 234.5t236 155t294 57q157 0 295.5 -57t236.5 -155t154.5 -234.5t56.5 -290.5q0 -158 -56.5 -298t-154.5 -241t-236.5 -160t-295.5 -59q-156 0 -294 59t-236 160t-154.5 241t-56.5 298zM281 811h1060q-26 207 -175 342t-355 135
q-208 0 -356 -135t-174 -342zM283 649q26 -213 174 -351t354 -138t354 138t176 351h-1058zM567 1599v207h152v-207h-152zM905 1599v207h150v-207h-150z" />
    <glyph glyph-name="uni04EB" unicode="&#x4eb;" horiz-adv-x="1251" 
d="M66 520q0 153 75 278t202.5 194t279.5 69q154 0 282 -69.5t202.5 -194t74.5 -277.5q0 -154 -74.5 -279.5t-202 -195.5t-280.5 -70t-281 70t-203 195.5t-75 279.5zM260 461q20 -145 123 -235.5t242 -90.5q138 0 241 90.5t123 235.5h-729zM260 588h727q-22 138 -124 225.5
t-238 87.5q-137 0 -239.5 -87t-125.5 -226zM387 1198v207h152v-207h-152zM725 1198v207h149v-207h-149z" />
    <glyph glyph-name="uni04EC" unicode="&#x4ec;" horiz-adv-x="1423" 
d="M57 199l107 143q54 -62 181.5 -122t272.5 -60q209 0 353 135t164 342h-746v168h746q-14 212 -154.5 346.5t-351.5 134.5q-59 0 -120.5 -11.5t-116 -33t-89.5 -57t-35 -78.5v-82h-188v133q0 93 82 166.5t205 110t258 36.5q214 0 381 -96.5t256.5 -262t89.5 -370.5
q0 -209 -92 -383.5t-261 -278.5t-381 -104q-94 0 -187 22.5t-164.5 58t-124 72t-85.5 71.5zM414 1599v207h151v-207h-151zM752 1599v207h149v-207h-149z" />
    <glyph glyph-name="uni04ED" unicode="&#x4ed;" horiz-adv-x="1085" 
d="M53 131l78 141q65 -67 151.5 -101t176.5 -34q141 0 242 85.5t120 223.5h-487v140h489q-18 143 -117.5 228t-230.5 85q-85 0 -158 -29.5t-73 -78.5v-52h-170v86q0 99 113.5 167.5t291.5 68.5q235 0 387 -155t152 -386q0 -237 -154.5 -391t-396.5 -154q-117 0 -225.5 40
t-188.5 116zM270 1241v207h152v-207h-152zM608 1241v207h150v-207h-150z" />
    <glyph glyph-name="uni04EE" unicode="&#x4ee;" horiz-adv-x="1273" 
d="M20 1270v176h125q70 0 102 -24.5t64 -94.5l293 -625q19 -40 38 -84.5t28 -69.5l10 -24h4q24 78 61 178l228 625q26 72 59.5 95.5t110.5 23.5h110v-176h-32q-29 0 -44.5 -9t-25.5 -34l-393 -996q-100 -256 -320 -256q-86 0 -162.5 34t-107.5 65l94 151q74 -63 152 -63
q62 0 98 39t66 123l-449 901q-12 25 -27 35t-41 10h-41zM391 1608v139h520v-139h-520z" />
    <glyph glyph-name="uni04EF" unicode="&#x4ef;" horiz-adv-x="1112" 
d="M6 -328l84 144q0 -3 18.5 -20t56 -35.5t75.5 -18.5q119 0 182 149l49 113l-356 821q-10 24 -24 32.5t-40 8.5h-26v170h116q63 0 94 -21.5t56 -82.5l233 -584q9 -24 18 -55t14 -51l5 -19h4q17 72 35 125l217 584q21 60 54 82t96 22h118v-170h-24q-27 0 -42.5 -8.5
t-25.5 -32.5l-407 -1011q-46 -118 -135.5 -181t-200.5 -63q-43 0 -84 10.5t-69 25.5t-49.5 30t-31.5 26zM303 1249v140h520v-140h-520z" />
    <glyph glyph-name="uni04F0" unicode="&#x4f0;" horiz-adv-x="1273" 
d="M20 1270v176h125q70 0 102 -24.5t64 -94.5l293 -625q19 -40 38 -84.5t28 -69.5l10 -24h4q24 78 61 178l228 625q26 72 59.5 95.5t110.5 23.5h110v-176h-32q-29 0 -44.5 -9t-25.5 -34l-393 -996q-100 -256 -320 -256q-86 0 -162.5 34t-107.5 65l94 151q74 -63 152 -63
q62 0 98 39t66 123l-449 901q-12 25 -27 35t-41 10h-41zM406 1599v207h151v-207h-151zM743 1599v207h150v-207h-150z" />
    <glyph glyph-name="uni04F1" unicode="&#x4f1;" horiz-adv-x="1112" 
d="M6 -328l82 144q0 -3 18.5 -20t56.5 -35.5t77 -18.5q59 0 105.5 39t76.5 110l47 113l-354 821q-10 24 -24 32.5t-40 8.5h-26v170h116q63 0 94 -21.5t56 -82.5l233 -584q9 -24 18 -55t14 -51l5 -19h4q17 72 35 125l217 584q21 61 53.5 82.5t96.5 21.5h118v-170h-26
q-26 0 -41 -8.5t-25 -32.5l-407 -1011q-49 -118 -137.5 -181t-198.5 -63q-43 0 -84 10.5t-69 25.5t-49.5 30t-31.5 26zM313 1241v207h152v-207h-152zM651 1241v207h150v-207h-150z" />
    <glyph glyph-name="uni04F2" unicode="&#x4f2;" horiz-adv-x="1273" 
d="M20 1270v176h125q70 0 102 -24.5t64 -94.5l293 -625q19 -40 38 -84.5t28 -69.5l10 -24h4q24 78 61 178l228 625q26 72 59.5 95.5t110.5 23.5h110v-176h-32q-29 0 -44.5 -9t-25.5 -34l-393 -996q-100 -256 -320 -256q-86 0 -162.5 34t-107.5 65l94 151q74 -63 152 -63
q62 0 98 39t66 123l-449 901q-12 25 -27 35t-41 10h-41zM397 1546l142 260h172l-144 -260h-170zM711 1546l147 260h203l-197 -260h-153z" />
    <glyph glyph-name="uni04F3" unicode="&#x4f3;" horiz-adv-x="1112" 
d="M6 -328l82 144q0 -3 18.5 -20t56.5 -35.5t77 -18.5q59 0 105.5 39t76.5 110l47 113l-354 821q-10 24 -24 32.5t-40 8.5h-26v170h116q63 0 94 -21.5t56 -82.5l233 -584q9 -24 18 -55t14 -51l5 -19h4q17 72 35 125l217 584q21 61 53.5 82.5t96.5 21.5h118v-170h-26
q-26 0 -41 -8.5t-25 -32.5l-407 -1011q-49 -118 -137.5 -181t-198.5 -63q-43 0 -84 10.5t-69 25.5t-49.5 30t-31.5 26zM309 1188l142 260h172l-144 -260h-170zM623 1188l147 260h203l-197 -260h-153z" />
    <glyph glyph-name="uni04F4" unicode="&#x4f4;" horiz-adv-x="1333" 
d="M29 1270v176h207q69 0 100 -31t31 -100v-295q0 -141 68 -211t218 -70q90 0 173.5 30.5t134.5 68.5v608h204v-1446h-204v586l4 67h-4q-180 -100 -355 -100q-223 0 -333.5 109.5t-110.5 312.5v250q0 45 -45 45h-88zM387 1599v207h152v-207h-152zM725 1599v207h149v-207
h-149z" />
    <glyph glyph-name="uni04F5" unicode="&#x4f5;" horiz-adv-x="1107" 
d="M35 866v170h186q71 0 100 -33.5t29 -97.5v-178q0 -42 8 -74t28.5 -61t61 -44.5t99.5 -15.5q124 0 231 74v430h199v-1036h-199v375l2 65h-2q-123 -80 -291 -80q-161 0 -246 80.5t-85 231.5v149q0 24 -11 34.5t-36 10.5h-74zM305 1241v207h152v-207h-152zM643 1241v207h150
v-207h-150z" />
    <glyph glyph-name="uni04F6" unicode="&#x4f6;" horiz-adv-x="1058" 
d="M68 1270v176h827q69 0 100 -31t31 -100v-182h-186v92q0 45 -45 45h-389v-1094h71q69 0 99 -29.5t30 -99.5v-334h-184v242q0 45 -41 45h-180v1270h-133z" />
    <glyph glyph-name="uni04F7" unicode="&#x4f7;" horiz-adv-x="903" 
d="M45 866v170h686q71 0 102 -28.5t31 -98.5v-157h-166v69q0 45 -45 45h-280v-700h49q67 0 96 -31t29 -98v-283h-185v201q0 45 -36 45h-152v866h-129z" />
    <glyph glyph-name="uni04F8" unicode="&#x4f8;" horiz-adv-x="1751" 
d="M68 1270v176h206q69 0 100.5 -31t31.5 -100v-414h276q97 0 179.5 -27t146 -80t99.5 -138.5t36 -194.5q0 -224 -137.5 -342.5t-356.5 -118.5h-315q-69 0 -101 31t-32 100v1094q0 45 -45 45h-88zM406 221q0 -45 45 -45h211q125 0 197.5 74t72.5 205q0 129 -72 199.5
t-198 70.5h-256v-504zM637 1599v207h151v-207h-151zM975 1599v207h149v-207h-149zM1343 131v1315h205v-1225q0 -45 45 -45h88v-176h-206q-69 0 -100.5 31t-31.5 100z" />
    <glyph glyph-name="uni04F9" unicode="&#x4f9;" horiz-adv-x="1482" 
d="M43 866v170h197q67 0 99 -29t32 -89v-261h204q177 0 275 -88.5t98 -240.5q0 -150 -103.5 -239t-269.5 -89h-290q-60 0 -86.5 27t-26.5 86v708q0 45 -45 45h-84zM371 184q0 -41 39 -41h141q92 0 144.5 51t52.5 136q0 86 -51 135t-146 49h-180v-330zM494 1241v207h151v-207
h-151zM831 1241v207h150v-207h-150zM1110 131v905h199v-821q0 -45 45 -45h82v-170h-195q-69 0 -100 31t-31 100z" />
    <glyph glyph-name="uni2000" unicode="&#x2000;" horiz-adv-x="913" 
 />
    <glyph glyph-name="uni2001" unicode="&#x2001;" horiz-adv-x="1827" 
 />
    <glyph glyph-name="uni2002" unicode="&#x2002;" horiz-adv-x="913" 
 />
    <glyph glyph-name="uni2003" unicode="&#x2003;" horiz-adv-x="1827" 
 />
    <glyph glyph-name="uni2004" unicode="&#x2004;" horiz-adv-x="609" 
 />
    <glyph glyph-name="uni2005" unicode="&#x2005;" horiz-adv-x="456" 
 />
    <glyph glyph-name="uni2006" unicode="&#x2006;" horiz-adv-x="304" 
 />
    <glyph glyph-name="uni2007" unicode="&#x2007;" horiz-adv-x="304" 
 />
    <glyph glyph-name="uni2008" unicode="&#x2008;" horiz-adv-x="228" 
 />
    <glyph glyph-name="uni2009" unicode="&#x2009;" horiz-adv-x="365" 
 />
    <glyph glyph-name="uni200A" unicode="&#x200a;" horiz-adv-x="101" 
 />
    <glyph glyph-name="uni2010" unicode="&#x2010;" horiz-adv-x="839" 
d="M121 496v176h598v-176h-598z" />
    <glyph glyph-name="uni2011" unicode="&#x2011;" horiz-adv-x="839" 
d="M121 496v176h598v-176h-598z" />
    <glyph glyph-name="figuredash" unicode="&#x2012;" horiz-adv-x="839" 
d="M121 496v176h598v-176h-598z" />
    <glyph glyph-name="endash" unicode="&#x2013;" horiz-adv-x="1325" 
d="M123 504v160h1079v-160h-1079z" />
    <glyph glyph-name="emdash" unicode="&#x2014;" horiz-adv-x="1734" 
d="M123 504v160h1489v-160h-1489z" />
    <glyph glyph-name="quoteleft" unicode="&#x2018;" horiz-adv-x="454" 
d="M98 1069l135 399h142l-88 -399h-189z" />
    <glyph glyph-name="quoteright" unicode="&#x2019;" horiz-adv-x="444" 
d="M109 1071l88 399h188l-133 -399h-143z" />
    <glyph glyph-name="quotesinglbase" unicode="&#x201a;" horiz-adv-x="487" 
d="M80 -184l88 399h188l-133 -399h-143z" />
    <glyph glyph-name="quotedblleft" unicode="&#x201c;" horiz-adv-x="737" 
d="M98 1069l135 399h142l-88 -399h-189zM383 1069l133 399h143l-88 -399h-188z" />
    <glyph glyph-name="quotedblright" unicode="&#x201d;" horiz-adv-x="727" 
d="M109 1071l88 399h188l-133 -399h-143zM393 1071l88 399h187l-133 -399h-142z" />
    <glyph glyph-name="quotedblbase" unicode="&#x201e;" horiz-adv-x="772" 
d="M80 -184l88 399h188l-133 -399h-143zM365 -184l88 399h186l-133 -399h-141z" />
    <glyph glyph-name="bullet" unicode="&#x2022;" horiz-adv-x="933" 
d="M150 596q0 132 92.5 224.5t224.5 92.5q131 0 223 -92.5t92 -224.5t-92 -224.5t-223 -92.5q-132 0 -224.5 92.5t-92.5 224.5z" />
    <glyph glyph-name="ellipsis" unicode="&#x2026;" horiz-adv-x="1507" 
d="M121 0v211h203v-211h-203zM651 0v211h205v-211h-205zM1184 0v211h202v-211h-202z" />
    <glyph glyph-name="uni202F" unicode="&#x202f;" horiz-adv-x="365" 
 />
    <glyph glyph-name="guilsinglleft" unicode="&#x2039;" horiz-adv-x="712" 
d="M84 578l336 421h198l-335 -421l335 -420h-198z" />
    <glyph glyph-name="guilsinglright" unicode="&#x203a;" horiz-adv-x="712" 
d="M92 158l336 420l-336 421h199l336 -421l-336 -420h-199z" />
    <glyph glyph-name="uni205F" unicode="&#x205f;" horiz-adv-x="456" 
 />
    <glyph glyph-name="Euro" unicode="&#x20ac;" 
d="M51 528v129h123q-4 37 -4 68l4 80h-123v131h146q64 236 254 385t440 149q48 0 96.5 -6t72.5 -12l25 -6l-47 -186q-71 22 -151 22q-170 0 -296.5 -93.5t-178.5 -252.5h567l-27 -131h-569q-6 -35 -6 -76l6 -72h543l-27 -129h-481q48 -163 176.5 -261.5t298.5 -98.5
q47 0 94.5 7t71.5 15l24 7l41 -187q-100 -35 -233 -35q-259 0 -448 152.5t-248 400.5h-144z" />
    <glyph glyph-name="trademark" unicode="&#x2122;" horiz-adv-x="2052" 
d="M119 1229v125q0 54 19.5 73t76.5 19h586q56 0 76 -19t20 -73v-125h-135v61q0 19 -19 19h-157v-764h-156v764h-156q-18 0 -18 -19v-61h-137zM905 545v137h47q20 0 23 18l57 746h144l213 -471q7 -16 14 -37.5t11 -35.5l3 -13h4q11 49 27 86l213 471h143l60 -746
q0 -18 20 -18h49v-137h-121q-56 0 -76.5 18.5t-23.5 73.5l-35 446l2 62h-4l-194 -434h-125l-195 434h-4l2 -62l-35 -446q-3 -55 -23.5 -73.5t-76.5 -18.5h-119z" />
    <glyph glyph-name="uniE000" unicode="&#xe000;" horiz-adv-x="1034" 
d="M0 0v1034h1034v-1034h-1034z" />
    </font>
</defs>
</svg>
